<?xml version="1.0" encoding="UTF-8" standalone="no"?>
<!-- Created with Inkscape (http://www.inkscape.org/) -->

<svg
   xmlns:dc="http://purl.org/dc/elements/1.1/"
   xmlns:cc="http://creativecommons.org/ns#"
   xmlns:rdf="http://www.w3.org/1999/02/22-rdf-syntax-ns#"
   xmlns:svg="http://www.w3.org/2000/svg"
   xmlns="http://www.w3.org/2000/svg"
   xmlns:sodipodi="http://sodipodi.sourceforge.net/DTD/sodipodi-0.dtd"
   xmlns:inkscape="http://www.inkscape.org/namespaces/inkscape"
   width="210mm"
   height="297mm"
   viewBox="0 0 210 297"
   version="1.1"
   id="svg8"
   inkscape:version="0.92.5 (2060ec1f9f, 2020-04-08)"
   sodipodi:docname="Front.svg">
  <defs
     id="defs2">
    <inkscape:path-effect
       effect="simplify"
       id="path-effect1063"
       is_visible="true"
       steps="1"
       threshold="0.5"
       smooth_angles="360"
       helper_size="0"
       simplify_individual_paths="false"
       simplify_just_coalesce="false"
       simplifyindividualpaths="false"
       simplifyJustCoalesce="false" />
    <inkscape:path-effect
       simplifyJustCoalesce="false"
       simplifyindividualpaths="false"
       simplify_just_coalesce="false"
       simplify_individual_paths="false"
       helper_size="0"
       smooth_angles="360"
       threshold="0.5"
       steps="1"
       is_visible="true"
       id="path-effect1051"
       effect="simplify" />
    <inkscape:path-effect
       effect="simplify"
       id="path-effect1039"
       is_visible="true"
       steps="1"
       threshold="0.5"
       smooth_angles="360"
       helper_size="0"
       simplify_individual_paths="false"
       simplify_just_coalesce="false"
       simplifyindividualpaths="false"
       simplifyJustCoalesce="false" />
    <inkscape:path-effect
       simplifyJustCoalesce="false"
       simplifyindividualpaths="false"
       simplify_just_coalesce="false"
       simplify_individual_paths="false"
       helper_size="0"
       smooth_angles="360"
       threshold="0.5"
       steps="1"
       is_visible="true"
       id="path-effect1027"
       effect="simplify" />
    <inkscape:path-effect
       effect="simplify"
       id="path-effect1015"
       is_visible="true"
       steps="1"
       threshold="0.5"
       smooth_angles="360"
       helper_size="0"
       simplify_individual_paths="false"
       simplify_just_coalesce="false"
       simplifyindividualpaths="false"
       simplifyJustCoalesce="false" />
    <inkscape:path-effect
       simplifyJustCoalesce="false"
       simplifyindividualpaths="false"
       simplify_just_coalesce="false"
       simplify_individual_paths="false"
       helper_size="0"
       smooth_angles="360"
       threshold="0.5"
       steps="1"
       is_visible="true"
       id="path-effect1003"
       effect="simplify" />
    <inkscape:path-effect
       effect="simplify"
       id="path-effect991"
       is_visible="true"
       steps="1"
       threshold="0.5"
       smooth_angles="360"
       helper_size="0"
       simplify_individual_paths="false"
       simplify_just_coalesce="false"
       simplifyindividualpaths="false"
       simplifyJustCoalesce="false" />
    <inkscape:path-effect
       simplifyJustCoalesce="false"
       simplifyindividualpaths="false"
       simplify_just_coalesce="false"
       simplify_individual_paths="false"
       helper_size="0"
       smooth_angles="360"
       threshold="0.5"
       steps="1"
       is_visible="true"
       id="path-effect979"
       effect="simplify" />
    <inkscape:path-effect
       effect="simplify"
       id="path-effect963"
       is_visible="true"
       steps="1"
       threshold="0.5"
       smooth_angles="360"
       helper_size="0"
       simplify_individual_paths="false"
       simplify_just_coalesce="false"
       simplifyindividualpaths="false"
       simplifyJustCoalesce="false" />
    <inkscape:path-effect
       simplifyJustCoalesce="false"
       simplifyindividualpaths="false"
       simplify_just_coalesce="false"
       simplify_individual_paths="false"
       helper_size="0"
       smooth_angles="360"
       threshold="0.5"
       steps="1"
       is_visible="true"
       id="path-effect951"
       effect="simplify" />
    <inkscape:path-effect
       effect="simplify"
       id="path-effect939"
       is_visible="true"
       steps="1"
       threshold="0.5"
       smooth_angles="360"
       helper_size="0"
       simplify_individual_paths="false"
       simplify_just_coalesce="false"
       simplifyindividualpaths="false"
       simplifyJustCoalesce="false" />
    <inkscape:path-effect
       simplifyJustCoalesce="false"
       simplifyindividualpaths="false"
       simplify_just_coalesce="false"
       simplify_individual_paths="false"
       helper_size="0"
       smooth_angles="360"
       threshold="0.5"
       steps="1"
       is_visible="true"
       id="path-effect927"
       effect="simplify" />
    <inkscape:path-effect
       effect="simplify"
       id="path-effect915"
       is_visible="true"
       steps="1"
       threshold="0.5"
       smooth_angles="360"
       helper_size="0"
       simplify_individual_paths="false"
       simplify_just_coalesce="false"
       simplifyindividualpaths="false"
       simplifyJustCoalesce="false" />
    <inkscape:path-effect
       simplifyJustCoalesce="false"
       simplifyindividualpaths="false"
       simplify_just_coalesce="false"
       simplify_individual_paths="false"
       helper_size="0"
       smooth_angles="360"
       threshold="0.5"
       steps="1"
       is_visible="true"
       id="path-effect903"
       effect="simplify" />
    <inkscape:path-effect
       simplifyJustCoalesce="false"
       simplifyindividualpaths="false"
       simplify_just_coalesce="false"
       simplify_individual_paths="false"
       helper_size="0"
       smooth_angles="360"
       threshold="0.5"
       steps="1"
       is_visible="true"
       id="path-effect891"
       effect="simplify" />
    <inkscape:path-effect
       effect="simplify"
       id="path-effect879"
       is_visible="true"
       steps="1"
       threshold="0.5"
       smooth_angles="360"
       helper_size="0"
       simplify_individual_paths="false"
       simplify_just_coalesce="false"
       simplifyindividualpaths="false"
       simplifyJustCoalesce="false" />
    <inkscape:path-effect
       simplifyJustCoalesce="false"
       simplifyindividualpaths="false"
       simplify_just_coalesce="false"
       simplify_individual_paths="false"
       helper_size="0"
       smooth_angles="360"
       threshold="0.5"
       steps="1"
       is_visible="true"
       id="path-effect867"
       effect="simplify" />
    <inkscape:path-effect
       effect="simplify"
       id="path-effect855"
       is_visible="true"
       steps="1"
       threshold="0.5"
       smooth_angles="360"
       helper_size="0"
       simplify_individual_paths="false"
       simplify_just_coalesce="false"
       simplifyindividualpaths="false"
       simplifyJustCoalesce="false" />
    <inkscape:path-effect
       simplifyJustCoalesce="false"
       simplifyindividualpaths="false"
       simplify_just_coalesce="false"
       simplify_individual_paths="false"
       helper_size="0"
       smooth_angles="360"
       threshold="0.5"
       steps="1"
       is_visible="true"
       id="path-effect843"
       effect="simplify" />
    <inkscape:path-effect
       effect="simplify"
       id="path-effect831"
       is_visible="true"
       steps="1"
       threshold="0.5"
       smooth_angles="360"
       helper_size="0"
       simplify_individual_paths="false"
       simplify_just_coalesce="false"
       simplifyindividualpaths="false"
       simplifyJustCoalesce="false" />
    <inkscape:path-effect
       effect="simplify"
       id="path-effect827"
       is_visible="true"
       steps="1"
       threshold="0.5"
       smooth_angles="360"
       helper_size="0"
       simplify_individual_paths="false"
       simplify_just_coalesce="false"
       simplifyindividualpaths="false"
       simplifyJustCoalesce="false" />
  </defs>
  <sodipodi:namedview
     id="base"
     pagecolor="#ffffff"
     bordercolor="#666666"
     borderopacity="1.0"
     inkscape:pageopacity="0.0"
     inkscape:pageshadow="2"
     inkscape:zoom="0.49497475"
     inkscape:cx="24.71645"
     inkscape:cy="657.29034"
     inkscape:document-units="mm"
     inkscape:current-layer="layer1"
     showgrid="true"
     inkscape:snap-grids="false"
     inkscape:window-width="1920"
     inkscape:window-height="1056"
     inkscape:window-x="0"
     inkscape:window-y="0"
     inkscape:window-maximized="1">
    <inkscape:grid
       type="xygrid"
       id="grid815"
       units="cm"
       spacingy="20"
       spacingx="10" />
  </sodipodi:namedview>
  <metadata
     id="metadata5">
    <rdf:RDF>
      <cc:Work
         rdf:about="">
        <dc:format>image/svg+xml</dc:format>
        <dc:type
           rdf:resource="http://purl.org/dc/dcmitype/StillImage" />
        <dc:title></dc:title>
      </cc:Work>
    </rdf:RDF>
  </metadata>
  <g
     inkscape:label="Ebene 1"
     inkscape:groupmode="layer"
     id="layer1">
    <path
       transform="matrix(0.49999999,0,0,1,35.000001,20.00001)"
       style="fill:none;stroke:#000000;stroke-width:1;stroke-linecap:butt;stroke-linejoin:miter;stroke-miterlimit:4;stroke-dasharray:none;stroke-opacity:1"
       d="m 69.999999,276.99999 c 13.333334,0 26.666667,0 40.000001,0"
       id="path829" />
    <g
       aria-label="400"
       transform="matrix(0.26458333,0,0,0.26458333,1.0690792,28.819904)"
       style="font-style:normal;font-weight:normal;font-size:40px;line-height:1.25;font-family:sans-serif;letter-spacing:0px;word-spacing:0px;fill:#000000;fill-opacity:1;stroke:none"
       id="flowRoot833">
      <path
         d="m 274.64453,989.58008 -6.64062,10.3776 h 6.64062 z m -0.6901,-2.29167 h 3.30729 v 12.66927 h 2.77344 v 2.18752 h -2.77344 v 4.5833 h -2.61719 v -4.5833 h -8.77604 v -2.53908 z"
         style="font-size:26.66666794px"
         id="path1005" />
      <path
         d="m 290.00912,989.02018 q -2.03125,0 -3.0599,2.00521 -1.01563,1.99219 -1.01563,6.0026 0,3.99741 1.01563,6.00261 1.02865,1.9922 3.0599,1.9922 2.04427,0 3.05989,-1.9922 1.02865,-2.0052 1.02865,-6.00261 0,-4.01041 -1.02865,-6.0026 -1.01562,-2.00521 -3.05989,-2.00521 z m 0,-2.08333 q 3.26822,0 4.98698,2.59114 1.73177,2.57813 1.73177,7.5 0,4.90881 -1.73177,7.50001 -1.71876,2.5781 -4.98698,2.5781 -3.26823,0 -5,-2.5781 -1.71875,-2.5912 -1.71875,-7.50001 0,-4.92187 1.71875,-7.5 1.73177,-2.59114 5,-2.59114 z"
         style="font-size:26.66666794px"
         id="path1007" />
      <path
         d="m 306.97526,989.02018 q -2.03125,0 -3.05989,2.00521 -1.01563,1.99219 -1.01563,6.0026 0,3.99741 1.01563,6.00261 1.02864,1.9922 3.05989,1.9922 2.04427,0 3.0599,-1.9922 1.02864,-2.0052 1.02864,-6.00261 0,-4.01041 -1.02864,-6.0026 -1.01563,-2.00521 -3.0599,-2.00521 z m 0,-2.08333 q 3.26823,0 4.98698,2.59114 1.73177,2.57813 1.73177,7.5 0,4.90881 -1.73177,7.50001 -1.71875,2.5781 -4.98698,2.5781 -3.26823,0 -5,-2.5781 -1.71875,-2.5912 -1.71875,-7.50001 0,-4.92187 1.71875,-7.5 1.73177,-2.59114 5,-2.59114 z"
         style="font-size:26.66666794px"
         id="path1009" />
    </g>
    <path
       transform="matrix(0.49999999,0,0,1,35.000001,1e-5)"
       style="fill:none;stroke:#000000;stroke-width:1;stroke-linecap:butt;stroke-linejoin:miter;stroke-miterlimit:4;stroke-dasharray:none;stroke-opacity:1"
       d="m 69.999999,276.99999 c 13.333334,0 26.666667,0 40.000001,0"
       id="path841" />
    <g
       aria-label="500"
       transform="matrix(0.26458333,0,0,0.26458333,1.0690793,8.819904)"
       style="font-style:normal;font-weight:normal;font-size:40px;line-height:1.25;font-family:sans-serif;letter-spacing:0px;word-spacing:0px;fill:#000000;fill-opacity:1;stroke:none"
       id="flowRoot851">
      <path
         d="m 267.44401,987.28841 h 10.32552 v 2.21354 h -7.91667 v 4.76563 q 0.57292,-0.19531 1.14584,-0.28646 0.57291,-0.10417 1.14583,-0.10417 3.25521,0 5.15625,1.78386 1.90104,1.78385 1.90104,4.83069 0,3.1381 -1.95312,4.8828 -1.95313,1.7318 -5.50781,1.7318 -1.22396,0 -2.5,-0.2083 -1.26303,-0.2083 -2.61719,-0.625 v -2.6432 q 1.17187,0.638 2.42187,0.9505 1.25,0.3125 2.64323,0.3125 2.25261,0 3.56771,-1.1849 1.31511,-1.1849 1.31511,-3.2162 0,-2.03121 -1.31511,-3.21611 -1.3151,-1.1849 -3.56771,-1.1849 -1.05469,0 -2.10937,0.23438 -1.04167,0.23437 -2.13542,0.72917 z"
         style="font-size:26.66666794px"
         id="path1012" />
      <path
         d="m 290.00912,989.02018 q -2.03125,0 -3.0599,2.00521 -1.01563,1.99219 -1.01563,6.0026 0,3.99741 1.01563,6.00261 1.02865,1.9922 3.0599,1.9922 2.04427,0 3.05989,-1.9922 1.02865,-2.0052 1.02865,-6.00261 0,-4.01041 -1.02865,-6.0026 -1.01562,-2.00521 -3.05989,-2.00521 z m 0,-2.08333 q 3.26822,0 4.98698,2.59114 1.73177,2.57813 1.73177,7.5 0,4.90881 -1.73177,7.50001 -1.71876,2.5781 -4.98698,2.5781 -3.26823,0 -5,-2.5781 -1.71875,-2.5912 -1.71875,-7.50001 0,-4.92187 1.71875,-7.5 1.73177,-2.59114 5,-2.59114 z"
         style="font-size:26.66666794px"
         id="path1014" />
      <path
         d="m 306.97526,989.02018 q -2.03125,0 -3.05989,2.00521 -1.01563,1.99219 -1.01563,6.0026 0,3.99741 1.01563,6.00261 1.02864,1.9922 3.05989,1.9922 2.04427,0 3.0599,-1.9922 1.02864,-2.0052 1.02864,-6.00261 0,-4.01041 -1.02864,-6.0026 -1.01563,-2.00521 -3.0599,-2.00521 z m 0,-2.08333 q 3.26823,0 4.98698,2.59114 1.73177,2.57813 1.73177,7.5 0,4.90881 -1.73177,7.50001 -1.71875,2.5781 -4.98698,2.5781 -3.26823,0 -5,-2.5781 -1.71875,-2.5912 -1.71875,-7.50001 0,-4.92187 1.71875,-7.5 1.73177,-2.59114 5,-2.59114 z"
         style="font-size:26.66666794px"
         id="path1016" />
    </g>
    <path
       transform="matrix(0.49999999,0,0,1,35.000001,-19.99999)"
       style="fill:none;stroke:#000000;stroke-width:1;stroke-linecap:butt;stroke-linejoin:miter;stroke-miterlimit:4;stroke-dasharray:none;stroke-opacity:1"
       d="m 69.999999,276.99999 c 13.333334,0 26.666667,0 40.000001,0"
       id="path853" />
    <g
       aria-label="600"
       transform="matrix(0.26458333,0,0,0.26458333,1.0690794,-11.180096)"
       style="font-style:normal;font-weight:normal;font-size:40px;line-height:1.25;font-family:sans-serif;letter-spacing:0px;word-spacing:0px;fill:#000000;fill-opacity:1;stroke:none"
       id="flowRoot863">
      <path
         d="m 273.36849,995.96029 q -1.77083,0 -2.8125,1.21093 -1.02865,1.21094 -1.02865,3.32028 0,2.0964 1.02865,3.3203 1.04167,1.211 2.8125,1.211 1.77083,0 2.79948,-1.211 1.04167,-1.2239 1.04167,-3.3203 0,-2.10934 -1.04167,-3.32028 -1.02865,-1.21093 -2.79948,-1.21093 z m 5.22135,-8.24219 v 2.39583 q -0.98958,-0.46875 -2.0052,-0.71614 -1.00261,-0.2474 -1.99219,-0.2474 -2.60417,0 -3.98438,1.75781 -1.36718,1.75781 -1.5625,5.3125 0.76823,-1.13281 1.92709,-1.73177 1.15885,-0.61198 2.55208,-0.61198 2.92969,0 4.6224,1.78386 1.70573,1.77083 1.70573,4.83069 0,2.9948 -1.77084,4.8047 -1.77083,1.8099 -4.71354,1.8099 -3.3724,0 -5.15625,-2.5781 -1.78385,-2.5912 -1.78385,-7.50001 0,-4.60937 2.1875,-7.34375 2.1875,-2.74739 5.87239,-2.74739 0.98959,0 1.99219,0.19531 1.01562,0.19531 2.10937,0.58594 z"
         style="font-size:26.66666794px"
         id="path1019" />
      <path
         d="m 290.00912,989.02018 q -2.03125,0 -3.0599,2.00521 -1.01563,1.99219 -1.01563,6.0026 0,3.99741 1.01563,6.00261 1.02865,1.9922 3.0599,1.9922 2.04427,0 3.05989,-1.9922 1.02865,-2.0052 1.02865,-6.00261 0,-4.01041 -1.02865,-6.0026 -1.01562,-2.00521 -3.05989,-2.00521 z m 0,-2.08333 q 3.26822,0 4.98698,2.59114 1.73177,2.57813 1.73177,7.5 0,4.90881 -1.73177,7.50001 -1.71876,2.5781 -4.98698,2.5781 -3.26823,0 -5,-2.5781 -1.71875,-2.5912 -1.71875,-7.50001 0,-4.92187 1.71875,-7.5 1.73177,-2.59114 5,-2.59114 z"
         style="font-size:26.66666794px"
         id="path1021" />
      <path
         d="m 306.97526,989.02018 q -2.03125,0 -3.05989,2.00521 -1.01563,1.99219 -1.01563,6.0026 0,3.99741 1.01563,6.00261 1.02864,1.9922 3.05989,1.9922 2.04427,0 3.0599,-1.9922 1.02864,-2.0052 1.02864,-6.00261 0,-4.01041 -1.02864,-6.0026 -1.01563,-2.00521 -3.0599,-2.00521 z m 0,-2.08333 q 3.26823,0 4.98698,2.59114 1.73177,2.57813 1.73177,7.5 0,4.90881 -1.73177,7.50001 -1.71875,2.5781 -4.98698,2.5781 -3.26823,0 -5,-2.5781 -1.71875,-2.5912 -1.71875,-7.50001 0,-4.92187 1.71875,-7.5 1.73177,-2.59114 5,-2.59114 z"
         style="font-size:26.66666794px"
         id="path1023" />
    </g>
    <path
       transform="matrix(0.49999999,0,0,1,35.000001,-39.99999)"
       style="fill:none;stroke:#000000;stroke-width:1;stroke-linecap:butt;stroke-linejoin:miter;stroke-miterlimit:4;stroke-dasharray:none;stroke-opacity:1"
       d="m 69.999999,276.99999 c 13.333334,0 26.666667,0 40.000001,0"
       id="path865" />
    <g
       aria-label="700"
       transform="matrix(0.26458333,0,0,0.26458333,1.0690794,-31.180096)"
       style="font-style:normal;font-weight:normal;font-size:40px;line-height:1.25;font-family:sans-serif;letter-spacing:0px;word-spacing:0px;fill:#000000;fill-opacity:1;stroke:none"
       id="flowRoot875">
      <path
         d="m 266.75391,987.28841 h 12.5 v 1.11979 l -7.0573,18.3203 h -2.74739 l 6.64062,-17.22655 h -9.33593 z"
         style="font-size:26.66666794px"
         id="path1026" />
      <path
         d="m 290.00912,989.02018 q -2.03125,0 -3.0599,2.00521 -1.01563,1.99219 -1.01563,6.0026 0,3.99741 1.01563,6.00261 1.02865,1.9922 3.0599,1.9922 2.04427,0 3.05989,-1.9922 1.02865,-2.0052 1.02865,-6.00261 0,-4.01041 -1.02865,-6.0026 -1.01562,-2.00521 -3.05989,-2.00521 z m 0,-2.08333 q 3.26822,0 4.98698,2.59114 1.73177,2.57813 1.73177,7.5 0,4.90881 -1.73177,7.50001 -1.71876,2.5781 -4.98698,2.5781 -3.26823,0 -5,-2.5781 -1.71875,-2.5912 -1.71875,-7.50001 0,-4.92187 1.71875,-7.5 1.73177,-2.59114 5,-2.59114 z"
         style="font-size:26.66666794px"
         id="path1028" />
      <path
         d="m 306.97526,989.02018 q -2.03125,0 -3.05989,2.00521 -1.01563,1.99219 -1.01563,6.0026 0,3.99741 1.01563,6.00261 1.02864,1.9922 3.05989,1.9922 2.04427,0 3.0599,-1.9922 1.02864,-2.0052 1.02864,-6.00261 0,-4.01041 -1.02864,-6.0026 -1.01563,-2.00521 -3.0599,-2.00521 z m 0,-2.08333 q 3.26823,0 4.98698,2.59114 1.73177,2.57813 1.73177,7.5 0,4.90881 -1.73177,7.50001 -1.71875,2.5781 -4.98698,2.5781 -3.26823,0 -5,-2.5781 -1.71875,-2.5912 -1.71875,-7.50001 0,-4.92187 1.71875,-7.5 1.73177,-2.59114 5,-2.59114 z"
         style="font-size:26.66666794px"
         id="path1030" />
    </g>
    <path
       transform="matrix(0.49999999,0,0,1,35.000001,-79.99999)"
       style="fill:none;stroke:#000000;stroke-width:1;stroke-linecap:butt;stroke-linejoin:miter;stroke-miterlimit:4;stroke-dasharray:none;stroke-opacity:1"
       d="m 69.999999,276.99999 c 13.333334,0 26.666667,0 40.000001,0"
       id="path877" />
    <g
       aria-label="900"
       transform="matrix(0.26458333,0,0,0.26458333,1.0690795,-71.180096)"
       style="font-style:normal;font-weight:normal;font-size:40px;line-height:1.25;font-family:sans-serif;letter-spacing:0px;word-spacing:0px;fill:#000000;fill-opacity:1;stroke:none"
       id="flowRoot887">
      <path
         d="m 267.49609,1006.3249 v -2.3959 q 0.98959,0.4688 2.00521,0.7162 1.01563,0.2474 1.99219,0.2474 2.60417,0 3.97135,-1.7448 1.38021,-1.7578 1.57553,-5.32553 -0.75521,1.11979 -1.91407,1.71875 -1.15885,0.59898 -2.5651,0.59898 -2.91667,0 -4.6224,-1.75784 -1.69271,-1.77083 -1.69271,-4.83073 0,-2.99479 1.77084,-4.80469 1.77083,-1.80989 4.71354,-1.80989 3.3724,0 5.14323,2.59114 1.78385,2.57813 1.78385,7.5 0,4.59631 -2.1875,7.34371 -2.17448,2.7344 -5.85937,2.7344 -0.98959,0 -2.00521,-0.1953 -1.01563,-0.1953 -2.10938,-0.5859 z m 5.23438,-8.24222 q 1.77083,0 2.79948,-1.21094 1.04167,-1.21093 1.04167,-3.32031 0,-2.09635 -1.04167,-3.30729 -1.02865,-1.22396 -2.79948,-1.22396 -1.77083,0 -2.8125,1.22396 -1.02865,1.21094 -1.02865,3.30729 0,2.10938 1.02865,3.32031 1.04167,1.21094 2.8125,1.21094 z"
         style="font-size:26.66666794px"
         id="path1041" />
      <path
         d="m 290.00912,989.02018 q -2.03125,0 -3.0599,2.00521 -1.01563,1.99219 -1.01563,6.0026 0,3.99741 1.01563,6.00261 1.02865,1.9922 3.0599,1.9922 2.04427,0 3.05989,-1.9922 1.02865,-2.0052 1.02865,-6.00261 0,-4.01041 -1.02865,-6.0026 -1.01562,-2.00521 -3.05989,-2.00521 z m 0,-2.08333 q 3.26822,0 4.98698,2.59114 1.73177,2.57813 1.73177,7.5 0,4.90881 -1.73177,7.50001 -1.71876,2.5781 -4.98698,2.5781 -3.26823,0 -5,-2.5781 -1.71875,-2.5912 -1.71875,-7.50001 0,-4.92187 1.71875,-7.5 1.73177,-2.59114 5,-2.59114 z"
         style="font-size:26.66666794px"
         id="path1043" />
      <path
         d="m 306.97526,989.02018 q -2.03125,0 -3.05989,2.00521 -1.01563,1.99219 -1.01563,6.0026 0,3.99741 1.01563,6.00261 1.02864,1.9922 3.05989,1.9922 2.04427,0 3.0599,-1.9922 1.02864,-2.0052 1.02864,-6.00261 0,-4.01041 -1.02864,-6.0026 -1.01563,-2.00521 -3.0599,-2.00521 z m 0,-2.08333 q 3.26823,0 4.98698,2.59114 1.73177,2.57813 1.73177,7.5 0,4.90881 -1.73177,7.50001 -1.71875,2.5781 -4.98698,2.5781 -3.26823,0 -5,-2.5781 -1.71875,-2.5912 -1.71875,-7.50001 0,-4.92187 1.71875,-7.5 1.73177,-2.59114 5,-2.59114 z"
         style="font-size:26.66666794px"
         id="path1045" />
    </g>
    <path
       transform="matrix(0.49999999,0,0,1,35.000001,-59.99999)"
       style="fill:none;stroke:#000000;stroke-width:1;stroke-linecap:butt;stroke-linejoin:miter;stroke-miterlimit:4;stroke-dasharray:none;stroke-opacity:1"
       d="m 69.999999,276.99999 c 13.333334,0 26.666667,0 40.000001,0"
       id="path889" />
    <g
       aria-label="800"
       transform="matrix(0.26458333,0,0,0.26458333,0.80180997,-51.66942)"
       style="font-style:normal;font-weight:normal;font-size:40px;line-height:1.25;font-family:sans-serif;letter-spacing:0px;word-spacing:0px;fill:#000000;fill-opacity:1;stroke:none"
       id="flowRoot899">
      <path
         d="m 273.04297,997.49674 q -1.875,0 -2.95573,1.00261 -1.06771,1.0026 -1.06771,2.76045 0,1.7578 1.06771,2.7604 1.08073,1.0026 2.95573,1.0026 1.875,0 2.95573,-1.0026 1.08073,-1.0156 1.08073,-2.7604 0,-1.75785 -1.08073,-2.76045 -1.06771,-1.00261 -2.95573,-1.00261 z m -2.63021,-1.11979 q -1.69271,-0.41666 -2.64323,-1.57552 -0.9375,-1.15885 -0.9375,-2.82552 0,-2.33073 1.65365,-3.6849 1.66666,-1.35416 4.55729,-1.35416 2.90365,0 4.55729,1.35416 1.65365,1.35417 1.65365,3.6849 0,1.66667 -0.95052,2.82552 -0.9375,1.15886 -2.61719,1.57552 1.90104,0.44271 2.95573,1.73177 1.06771,1.28907 1.06771,3.15108 0,2.8255 -1.73177,4.3359 -1.71875,1.5104 -4.9349,1.5104 -3.21615,0 -4.94792,-1.5104 -1.71875,-1.5104 -1.71875,-4.3359 0,-1.86201 1.06771,-3.15108 1.06771,-1.28906 2.96875,-1.73177 z m -0.96354,-4.15364 q 0,1.51041 0.9375,2.35677 0.95052,0.84635 2.65625,0.84635 1.69271,0 2.64323,-0.84635 0.96354,-0.84636 0.96354,-2.35677 0,-1.51042 -0.96354,-2.35677 -0.95052,-0.84636 -2.64323,-0.84636 -1.70573,0 -2.65625,0.84636 -0.9375,0.84635 -0.9375,2.35677 z"
         style="font-size:26.66666794px"
         id="path1033" />
      <path
         d="m 290.00912,989.02018 q -2.03125,0 -3.0599,2.00521 -1.01563,1.99219 -1.01563,6.0026 0,3.99741 1.01563,6.00261 1.02865,1.9922 3.0599,1.9922 2.04427,0 3.05989,-1.9922 1.02865,-2.0052 1.02865,-6.00261 0,-4.01041 -1.02865,-6.0026 -1.01562,-2.00521 -3.05989,-2.00521 z m 0,-2.08333 q 3.26822,0 4.98698,2.59114 1.73177,2.57813 1.73177,7.5 0,4.90881 -1.73177,7.50001 -1.71876,2.5781 -4.98698,2.5781 -3.26823,0 -5,-2.5781 -1.71875,-2.5912 -1.71875,-7.50001 0,-4.92187 1.71875,-7.5 1.73177,-2.59114 5,-2.59114 z"
         style="font-size:26.66666794px"
         id="path1035" />
      <path
         d="m 306.97526,989.02018 q -2.03125,0 -3.05989,2.00521 -1.01563,1.99219 -1.01563,6.0026 0,3.99741 1.01563,6.00261 1.02864,1.9922 3.05989,1.9922 2.04427,0 3.0599,-1.9922 1.02864,-2.0052 1.02864,-6.00261 0,-4.01041 -1.02864,-6.0026 -1.01563,-2.00521 -3.0599,-2.00521 z m 0,-2.08333 q 3.26823,0 4.98698,2.59114 1.73177,2.57813 1.73177,7.5 0,4.90881 -1.73177,7.50001 -1.71875,2.5781 -4.98698,2.5781 -3.26823,0 -5,-2.5781 -1.71875,-2.5912 -1.71875,-7.50001 0,-4.92187 1.71875,-7.5 1.73177,-2.59114 5,-2.59114 z"
         style="font-size:26.66666794px"
         id="path1038" />
    </g>
    <path
       transform="matrix(0.49999999,0,0,1,35.000001,-99.99999)"
       style="fill:none;stroke:#000000;stroke-width:1;stroke-linecap:butt;stroke-linejoin:miter;stroke-miterlimit:4;stroke-dasharray:none;stroke-opacity:1"
       d="m 69.999999,276.99999 c 13.333334,0 26.666667,0 40.000001,0"
       id="path901" />
    <g
       aria-label="1000"
       transform="matrix(0.26458333,0,0,0.26458333,1.0690795,-91.180096)"
       style="font-style:normal;font-weight:normal;font-size:40px;line-height:1.25;font-family:sans-serif;letter-spacing:0px;word-spacing:0px;fill:#000000;fill-opacity:1;stroke:none"
       id="flowRoot911">
      <path
         d="m 267.8737,1004.515 h 4.29687 v -14.83076 l -4.67448,0.9375 v -2.39583 l 4.64844,-0.9375 h 2.63021 v 17.22659 h 4.29688 v 2.2135 H 267.8737 Z"
         style="font-size:26.66666794px"
         id="path1048" />
      <path
         d="m 290.00912,989.02018 q -2.03125,0 -3.0599,2.00521 -1.01563,1.99219 -1.01563,6.0026 0,3.99741 1.01563,6.00261 1.02865,1.9922 3.0599,1.9922 2.04427,0 3.05989,-1.9922 1.02865,-2.0052 1.02865,-6.00261 0,-4.01041 -1.02865,-6.0026 -1.01562,-2.00521 -3.05989,-2.00521 z m 0,-2.08333 q 3.26822,0 4.98698,2.59114 1.73177,2.57813 1.73177,7.5 0,4.90881 -1.73177,7.50001 -1.71876,2.5781 -4.98698,2.5781 -3.26823,0 -5,-2.5781 -1.71875,-2.5912 -1.71875,-7.50001 0,-4.92187 1.71875,-7.5 1.73177,-2.59114 5,-2.59114 z"
         style="font-size:26.66666794px"
         id="path1050" />
      <path
         d="m 306.97526,989.02018 q -2.03125,0 -3.05989,2.00521 -1.01563,1.99219 -1.01563,6.0026 0,3.99741 1.01563,6.00261 1.02864,1.9922 3.05989,1.9922 2.04427,0 3.0599,-1.9922 1.02864,-2.0052 1.02864,-6.00261 0,-4.01041 -1.02864,-6.0026 -1.01563,-2.00521 -3.0599,-2.00521 z m 0,-2.08333 q 3.26823,0 4.98698,2.59114 1.73177,2.57813 1.73177,7.5 0,4.90881 -1.73177,7.50001 -1.71875,2.5781 -4.98698,2.5781 -3.26823,0 -5,-2.5781 -1.71875,-2.5912 -1.71875,-7.50001 0,-4.92187 1.71875,-7.5 1.73177,-2.59114 5,-2.59114 z"
         style="font-size:26.66666794px"
         id="path1052" />
      <path
         d="m 323.94141,989.02018 q -2.03125,0 -3.0599,2.00521 -1.01562,1.99219 -1.01562,6.0026 0,3.99741 1.01562,6.00261 1.02865,1.9922 3.0599,1.9922 2.04427,0 3.05989,-1.9922 1.02865,-2.0052 1.02865,-6.00261 0,-4.01041 -1.02865,-6.0026 -1.01562,-2.00521 -3.05989,-2.00521 z m 0,-2.08333 q 3.26823,0 4.98698,2.59114 1.73177,2.57813 1.73177,7.5 0,4.90881 -1.73177,7.50001 -1.71875,2.5781 -4.98698,2.5781 -3.26823,0 -5,-2.5781 -1.71875,-2.5912 -1.71875,-7.50001 0,-4.92187 1.71875,-7.5 1.73177,-2.59114 5,-2.59114 z"
         style="font-size:26.66666794px"
         id="path1054" />
    </g>
    <path
       transform="matrix(0.49999999,0,0,1,35.000001,-119.99999)"
       style="fill:none;stroke:#000000;stroke-width:1;stroke-linecap:butt;stroke-linejoin:miter;stroke-miterlimit:4;stroke-dasharray:none;stroke-opacity:1"
       d="m 69.999999,276.99999 c 13.333334,0 26.666667,0 40.000001,0"
       id="path913" />
    <g
       aria-label="1100"
       transform="matrix(0.26458333,0,0,0.26458333,1.0690795,-111.1801)"
       style="font-style:normal;font-weight:normal;font-size:40px;line-height:1.25;font-family:sans-serif;letter-spacing:0px;word-spacing:0px;fill:#000000;fill-opacity:1;stroke:none"
       id="flowRoot923">
      <path
         d="m 267.8737,1004.515 h 4.29687 v -14.83076 l -4.67448,0.9375 v -2.39583 l 4.64844,-0.9375 h 2.63021 v 17.22659 h 4.29688 v 2.2135 H 267.8737 Z"
         style="font-size:26.66666794px"
         id="path1057" />
      <path
         d="m 284.83984,1004.515 h 4.29688 v -14.83076 l -4.67448,0.9375 v -2.39583 l 4.64844,-0.9375 h 2.63021 v 17.22659 h 4.29687 v 2.2135 h -11.19792 z"
         style="font-size:26.66666794px"
         id="path1059" />
      <path
         d="m 306.97526,989.02018 q -2.03125,0 -3.05989,2.00521 -1.01563,1.99219 -1.01563,6.0026 0,3.99741 1.01563,6.00261 1.02864,1.9922 3.05989,1.9922 2.04427,0 3.0599,-1.9922 1.02864,-2.0052 1.02864,-6.00261 0,-4.01041 -1.02864,-6.0026 -1.01563,-2.00521 -3.0599,-2.00521 z m 0,-2.08333 q 3.26823,0 4.98698,2.59114 1.73177,2.57813 1.73177,7.5 0,4.90881 -1.73177,7.50001 -1.71875,2.5781 -4.98698,2.5781 -3.26823,0 -5,-2.5781 -1.71875,-2.5912 -1.71875,-7.50001 0,-4.92187 1.71875,-7.5 1.73177,-2.59114 5,-2.59114 z"
         style="font-size:26.66666794px"
         id="path1061" />
      <path
         d="m 323.94141,989.02018 q -2.03125,0 -3.0599,2.00521 -1.01562,1.99219 -1.01562,6.0026 0,3.99741 1.01562,6.00261 1.02865,1.9922 3.0599,1.9922 2.04427,0 3.05989,-1.9922 1.02865,-2.0052 1.02865,-6.00261 0,-4.01041 -1.02865,-6.0026 -1.01562,-2.00521 -3.05989,-2.00521 z m 0,-2.08333 q 3.26823,0 4.98698,2.59114 1.73177,2.57813 1.73177,7.5 0,4.90881 -1.73177,7.50001 -1.71875,2.5781 -4.98698,2.5781 -3.26823,0 -5,-2.5781 -1.71875,-2.5912 -1.71875,-7.50001 0,-4.92187 1.71875,-7.5 1.73177,-2.59114 5,-2.59114 z"
         style="font-size:26.66666794px"
         id="path1063" />
    </g>
    <path
       transform="matrix(0.49999999,0,0,1,35.000001,-139.99999)"
       style="fill:none;stroke:#000000;stroke-width:1;stroke-linecap:butt;stroke-linejoin:miter;stroke-miterlimit:4;stroke-dasharray:none;stroke-opacity:1"
       d="m 69.999999,276.99999 c 13.333334,0 26.666667,0 40.000001,0"
       id="path925" />
    <g
       aria-label="1200"
       transform="matrix(0.26458333,0,0,0.26458333,1.0690796,-131.1801)"
       style="font-style:normal;font-weight:normal;font-size:40px;line-height:1.25;font-family:sans-serif;letter-spacing:0px;word-spacing:0px;fill:#000000;fill-opacity:1;stroke:none"
       id="flowRoot935">
      <path
         d="m 267.8737,1004.515 h 4.29687 v -14.83076 l -4.67448,0.9375 v -2.39583 l 4.64844,-0.9375 h 2.63021 v 17.22659 h 4.29688 v 2.2135 H 267.8737 Z"
         style="font-size:26.66666794px"
         id="path1066" />
      <path
         d="m 286.64974,1004.515 h 9.17969 v 2.2135 h -12.34375 v -2.2135 q 1.49739,-1.5495 4.07552,-4.1537 2.59114,-2.61716 3.25521,-3.37237 1.26302,-1.41927 1.75781,-2.39583 0.50781,-0.98959 0.50781,-1.94011 0,-1.54948 -1.09375,-2.52604 -1.08073,-0.97656 -2.82552,-0.97656 -1.23698,0 -2.61719,0.42969 -1.36718,0.42968 -2.92968,1.30208 v -2.65625 q 1.58854,-0.63802 2.96875,-0.96354 1.3802,-0.32552 2.52604,-0.32552 3.02083,0 4.81771,1.51041 1.79687,1.51042 1.79687,4.03646 0,1.19792 -0.45573,2.27865 -0.44271,1.06771 -1.6276,2.52604 -0.32552,0.37761 -2.07031,2.1875 -1.7448,1.79689 -4.92188,5.03909 z"
         style="font-size:26.66666794px"
         id="path1068" />
      <path
         d="m 306.97526,989.02018 q -2.03125,0 -3.05989,2.00521 -1.01563,1.99219 -1.01563,6.0026 0,3.99741 1.01563,6.00261 1.02864,1.9922 3.05989,1.9922 2.04427,0 3.0599,-1.9922 1.02864,-2.0052 1.02864,-6.00261 0,-4.01041 -1.02864,-6.0026 -1.01563,-2.00521 -3.0599,-2.00521 z m 0,-2.08333 q 3.26823,0 4.98698,2.59114 1.73177,2.57813 1.73177,7.5 0,4.90881 -1.73177,7.50001 -1.71875,2.5781 -4.98698,2.5781 -3.26823,0 -5,-2.5781 -1.71875,-2.5912 -1.71875,-7.50001 0,-4.92187 1.71875,-7.5 1.73177,-2.59114 5,-2.59114 z"
         style="font-size:26.66666794px"
         id="path1070" />
      <path
         d="m 323.94141,989.02018 q -2.03125,0 -3.0599,2.00521 -1.01562,1.99219 -1.01562,6.0026 0,3.99741 1.01562,6.00261 1.02865,1.9922 3.0599,1.9922 2.04427,0 3.05989,-1.9922 1.02865,-2.0052 1.02865,-6.00261 0,-4.01041 -1.02865,-6.0026 -1.01562,-2.00521 -3.05989,-2.00521 z m 0,-2.08333 q 3.26823,0 4.98698,2.59114 1.73177,2.57813 1.73177,7.5 0,4.90881 -1.73177,7.50001 -1.71875,2.5781 -4.98698,2.5781 -3.26823,0 -5,-2.5781 -1.71875,-2.5912 -1.71875,-7.50001 0,-4.92187 1.71875,-7.5 1.73177,-2.59114 5,-2.59114 z"
         style="font-size:26.66666794px"
         id="path1072" />
    </g>
    <path
       transform="matrix(0.49999999,0,0,1,35.000001,-159.99999)"
       style="fill:none;stroke:#000000;stroke-width:1;stroke-linecap:butt;stroke-linejoin:miter;stroke-miterlimit:4;stroke-dasharray:none;stroke-opacity:1"
       d="m 69.999999,276.99999 c 13.333334,0 26.666667,0 40.000001,0"
       id="path937" />
    <g
       aria-label="1300"
       transform="matrix(0.26458333,0,0,0.26458333,1.0690797,-151.1801)"
       style="font-style:normal;font-weight:normal;font-size:40px;line-height:1.25;font-family:sans-serif;letter-spacing:0px;word-spacing:0px;fill:#000000;fill-opacity:1;stroke:none"
       id="flowRoot947">
      <path
         d="m 267.8737,1004.515 h 4.29687 v -14.83076 l -4.67448,0.9375 v -2.39583 l 4.64844,-0.9375 h 2.63021 v 17.22659 h 4.29688 v 2.2135 H 267.8737 Z"
         style="font-size:26.66666794px"
         id="path1075" />
      <path
         d="m 292.35287,996.24674 q 1.88802,0.40365 2.9427,1.67969 1.06771,1.27604 1.06771,3.15107 0,2.8776 -1.97916,4.4531 -1.97917,1.5755 -5.625,1.5755 -1.22396,0 -2.52605,-0.2474 -1.28906,-0.2344 -2.66927,-0.7161 v -2.5391 q 1.09375,0.638 2.39584,0.9636 1.30208,0.3255 2.72135,0.3255 2.47396,0 3.76302,-0.9766 1.30208,-0.9765 1.30208,-2.8385 0,-1.71878 -1.21093,-2.68232 -1.19792,-0.97656 -3.34636,-0.97656 h -2.26562 v -2.16146 h 2.36979 q 1.9401,0 2.96875,-0.76823 1.02865,-0.78125 1.02865,-2.23958 0,-1.4974 -1.06771,-2.29167 -1.05469,-0.80729 -3.03386,-0.80729 -1.08073,0 -2.31771,0.23437 -1.23697,0.23438 -2.72135,0.72917 v -2.34375 q 1.4974,-0.41667 2.79948,-0.625 1.3151,-0.20833 2.47396,-0.20833 2.99479,0 4.73958,1.36719 1.74479,1.35416 1.74479,3.67187 0,1.61458 -0.92448,2.73438 -0.92448,1.10677 -2.6302,1.53645 z"
         style="font-size:26.66666794px"
         id="path1077" />
      <path
         d="m 306.97526,989.02018 q -2.03125,0 -3.05989,2.00521 -1.01563,1.99219 -1.01563,6.0026 0,3.99741 1.01563,6.00261 1.02864,1.9922 3.05989,1.9922 2.04427,0 3.0599,-1.9922 1.02864,-2.0052 1.02864,-6.00261 0,-4.01041 -1.02864,-6.0026 -1.01563,-2.00521 -3.0599,-2.00521 z m 0,-2.08333 q 3.26823,0 4.98698,2.59114 1.73177,2.57813 1.73177,7.5 0,4.90881 -1.73177,7.50001 -1.71875,2.5781 -4.98698,2.5781 -3.26823,0 -5,-2.5781 -1.71875,-2.5912 -1.71875,-7.50001 0,-4.92187 1.71875,-7.5 1.73177,-2.59114 5,-2.59114 z"
         style="font-size:26.66666794px"
         id="path1079" />
      <path
         d="m 323.94141,989.02018 q -2.03125,0 -3.0599,2.00521 -1.01562,1.99219 -1.01562,6.0026 0,3.99741 1.01562,6.00261 1.02865,1.9922 3.0599,1.9922 2.04427,0 3.05989,-1.9922 1.02865,-2.0052 1.02865,-6.00261 0,-4.01041 -1.02865,-6.0026 -1.01562,-2.00521 -3.05989,-2.00521 z m 0,-2.08333 q 3.26823,0 4.98698,2.59114 1.73177,2.57813 1.73177,7.5 0,4.90881 -1.73177,7.50001 -1.71875,2.5781 -4.98698,2.5781 -3.26823,0 -5,-2.5781 -1.71875,-2.5912 -1.71875,-7.50001 0,-4.92187 1.71875,-7.5 1.73177,-2.59114 5,-2.59114 z"
         style="font-size:26.66666794px"
         id="path1081" />
    </g>
    <path
       transform="matrix(0.49999999,0,0,1,35.000001,-179.99999)"
       style="fill:none;stroke:#000000;stroke-width:1;stroke-linecap:butt;stroke-linejoin:miter;stroke-miterlimit:4;stroke-dasharray:none;stroke-opacity:1"
       d="m 69.999999,276.99999 c 13.333334,0 26.666667,0 40.000001,0"
       id="path949" />
    <g
       aria-label="1400"
       transform="matrix(0.26458333,0,0,0.26458333,1.0690797,-171.1801)"
       style="font-style:normal;font-weight:normal;font-size:40px;line-height:1.25;font-family:sans-serif;letter-spacing:0px;word-spacing:0px;fill:#000000;fill-opacity:1;stroke:none"
       id="flowRoot959">
      <path
         d="m 267.8737,1004.515 h 4.29687 v -14.83076 l -4.67448,0.9375 v -2.39583 l 4.64844,-0.9375 h 2.63021 v 17.22659 h 4.29688 v 2.2135 H 267.8737 Z"
         style="font-size:26.66666794px"
         id="path1084" />
      <path
         d="m 291.61068,989.58008 -6.64063,10.3776 h 6.64063 z m -0.69011,-2.29167 h 3.3073 v 12.66927 h 2.77343 v 2.18752 h -2.77343 v 4.5833 h -2.61719 v -4.5833 h -8.77604 v -2.53908 z"
         style="font-size:26.66666794px"
         id="path1086" />
      <path
         d="m 306.97526,989.02018 q -2.03125,0 -3.05989,2.00521 -1.01563,1.99219 -1.01563,6.0026 0,3.99741 1.01563,6.00261 1.02864,1.9922 3.05989,1.9922 2.04427,0 3.0599,-1.9922 1.02864,-2.0052 1.02864,-6.00261 0,-4.01041 -1.02864,-6.0026 -1.01563,-2.00521 -3.0599,-2.00521 z m 0,-2.08333 q 3.26823,0 4.98698,2.59114 1.73177,2.57813 1.73177,7.5 0,4.90881 -1.73177,7.50001 -1.71875,2.5781 -4.98698,2.5781 -3.26823,0 -5,-2.5781 -1.71875,-2.5912 -1.71875,-7.50001 0,-4.92187 1.71875,-7.5 1.73177,-2.59114 5,-2.59114 z"
         style="font-size:26.66666794px"
         id="path1088" />
      <path
         d="m 323.94141,989.02018 q -2.03125,0 -3.0599,2.00521 -1.01562,1.99219 -1.01562,6.0026 0,3.99741 1.01562,6.00261 1.02865,1.9922 3.0599,1.9922 2.04427,0 3.05989,-1.9922 1.02865,-2.0052 1.02865,-6.00261 0,-4.01041 -1.02865,-6.0026 -1.01562,-2.00521 -3.05989,-2.00521 z m 0,-2.08333 q 3.26823,0 4.98698,2.59114 1.73177,2.57813 1.73177,7.5 0,4.90881 -1.73177,7.50001 -1.71875,2.5781 -4.98698,2.5781 -3.26823,0 -5,-2.5781 -1.71875,-2.5912 -1.71875,-7.50001 0,-4.92187 1.71875,-7.5 1.73177,-2.59114 5,-2.59114 z"
         style="font-size:26.66666794px"
         id="path1090" />
    </g>
    <path
       transform="matrix(0.49999999,0,0,1,35.000001,-199.99999)"
       style="fill:none;stroke:#000000;stroke-width:1;stroke-linecap:butt;stroke-linejoin:miter;stroke-miterlimit:4;stroke-dasharray:none;stroke-opacity:1"
       d="m 69.999999,276.99999 c 13.333334,0 26.666667,0 40.000001,0"
       id="path961" />
    <g
       aria-label="1500"
       transform="matrix(0.26458333,0,0,0.26458333,1.0690798,-191.1801)"
       style="font-style:normal;font-weight:normal;font-size:40px;line-height:1.25;font-family:sans-serif;letter-spacing:0px;word-spacing:0px;fill:#000000;fill-opacity:1;stroke:none"
       id="flowRoot971">
      <path
         d="m 267.8737,1004.515 h 4.29687 v -14.83076 l -4.67448,0.9375 v -2.39583 l 4.64844,-0.9375 h 2.63021 v 17.22659 h 4.29688 v 2.2135 H 267.8737 Z"
         style="font-size:26.66666794px"
         id="path1093" />
      <path
         d="m 284.41016,987.28841 h 10.32552 v 2.21354 h -7.91667 v 4.76563 q 0.57292,-0.19531 1.14583,-0.28646 0.57292,-0.10417 1.14584,-0.10417 3.25521,0 5.15625,1.78386 1.90104,1.78385 1.90104,4.83069 0,3.1381 -1.95313,4.8828 -1.95312,1.7318 -5.50781,1.7318 -1.22396,0 -2.5,-0.2083 -1.26302,-0.2083 -2.61719,-0.625 v -2.6432 q 1.17188,0.638 2.42188,0.9505 1.25,0.3125 2.64323,0.3125 2.2526,0 3.56771,-1.1849 1.3151,-1.1849 1.3151,-3.2162 0,-2.03121 -1.3151,-3.21611 -1.31511,-1.1849 -3.56771,-1.1849 -1.05469,0 -2.10938,0.23438 -1.04166,0.23437 -2.13541,0.72917 z"
         style="font-size:26.66666794px"
         id="path1095" />
      <path
         d="m 306.97526,989.02018 q -2.03125,0 -3.05989,2.00521 -1.01563,1.99219 -1.01563,6.0026 0,3.99741 1.01563,6.00261 1.02864,1.9922 3.05989,1.9922 2.04427,0 3.0599,-1.9922 1.02864,-2.0052 1.02864,-6.00261 0,-4.01041 -1.02864,-6.0026 -1.01563,-2.00521 -3.0599,-2.00521 z m 0,-2.08333 q 3.26823,0 4.98698,2.59114 1.73177,2.57813 1.73177,7.5 0,4.90881 -1.73177,7.50001 -1.71875,2.5781 -4.98698,2.5781 -3.26823,0 -5,-2.5781 -1.71875,-2.5912 -1.71875,-7.50001 0,-4.92187 1.71875,-7.5 1.73177,-2.59114 5,-2.59114 z"
         style="font-size:26.66666794px"
         id="path1097" />
      <path
         d="m 323.94141,989.02018 q -2.03125,0 -3.0599,2.00521 -1.01562,1.99219 -1.01562,6.0026 0,3.99741 1.01562,6.00261 1.02865,1.9922 3.0599,1.9922 2.04427,0 3.05989,-1.9922 1.02865,-2.0052 1.02865,-6.00261 0,-4.01041 -1.02865,-6.0026 -1.01562,-2.00521 -3.05989,-2.00521 z m 0,-2.08333 q 3.26823,0 4.98698,2.59114 1.73177,2.57813 1.73177,7.5 0,4.90881 -1.73177,7.50001 -1.71875,2.5781 -4.98698,2.5781 -3.26823,0 -5,-2.5781 -1.71875,-2.5912 -1.71875,-7.50001 0,-4.92187 1.71875,-7.5 1.73177,-2.59114 5,-2.59114 z"
         style="font-size:26.66666794px"
         id="path1099" />
    </g>
    <text
       xml:space="preserve"
       style="font-style:normal;font-weight:normal;font-size:10.58333302px;line-height:1.25;font-family:sans-serif;letter-spacing:0px;word-spacing:0px;fill:#000000;fill-opacity:1;stroke:none;stroke-width:0.26458332"
       x="80"
       y="77"
       id="text975"><tspan
         sodipodi:role="line"
         id="tspan973"
         x="80"
         y="86.36377"
         style="stroke-width:0.26458332" /></text>
    <path
       transform="matrix(0.49999999,0,0,1,35.000001,-219.99999)"
       style="fill:none;stroke:#000000;stroke-width:1;stroke-linecap:butt;stroke-linejoin:miter;stroke-miterlimit:4;stroke-dasharray:none;stroke-opacity:1"
       d="m 69.999999,276.99999 c 13.333334,0 26.666667,0 40.000001,0"
       id="path977" />
    <g
       aria-label="1600"
       transform="matrix(0.26458333,0,0,0.26458333,1.0690798,-211.1801)"
       style="font-style:normal;font-weight:normal;font-size:40px;line-height:1.25;font-family:sans-serif;letter-spacing:0px;word-spacing:0px;fill:#000000;fill-opacity:1;stroke:none"
       id="flowRoot987">
      <path
         d="m 267.8737,1004.515 h 4.29687 v -14.83076 l -4.67448,0.9375 v -2.39583 l 4.64844,-0.9375 h 2.63021 v 17.22659 h 4.29688 v 2.2135 H 267.8737 Z"
         style="font-size:26.66666794px"
         id="path1102" />
      <path
         d="m 290.33464,995.96029 q -1.77084,0 -2.8125,1.21093 -1.02865,1.21094 -1.02865,3.32028 0,2.0964 1.02865,3.3203 1.04166,1.211 2.8125,1.211 1.77083,0 2.79948,-1.211 1.04166,-1.2239 1.04166,-3.3203 0,-2.10934 -1.04166,-3.32028 -1.02865,-1.21093 -2.79948,-1.21093 z m 5.22135,-8.24219 v 2.39583 q -0.98958,-0.46875 -2.00521,-0.71614 -1.0026,-0.2474 -1.99219,-0.2474 -2.60416,0 -3.98437,1.75781 -1.36719,1.75781 -1.5625,5.3125 0.76823,-1.13281 1.92708,-1.73177 1.15886,-0.61198 2.55209,-0.61198 2.92968,0 4.62239,1.78386 1.70573,1.77083 1.70573,4.83069 0,2.9948 -1.77083,4.8047 -1.77084,1.8099 -4.71354,1.8099 -3.3724,0 -5.15625,-2.5781 -1.78386,-2.5912 -1.78386,-7.50001 0,-4.60937 2.1875,-7.34375 2.1875,-2.74739 5.8724,-2.74739 0.98958,0 1.99219,0.19531 1.01562,0.19531 2.10937,0.58594 z"
         style="font-size:26.66666794px"
         id="path1104" />
      <path
         d="m 306.97526,989.02018 q -2.03125,0 -3.05989,2.00521 -1.01563,1.99219 -1.01563,6.0026 0,3.99741 1.01563,6.00261 1.02864,1.9922 3.05989,1.9922 2.04427,0 3.0599,-1.9922 1.02864,-2.0052 1.02864,-6.00261 0,-4.01041 -1.02864,-6.0026 -1.01563,-2.00521 -3.0599,-2.00521 z m 0,-2.08333 q 3.26823,0 4.98698,2.59114 1.73177,2.57813 1.73177,7.5 0,4.90881 -1.73177,7.50001 -1.71875,2.5781 -4.98698,2.5781 -3.26823,0 -5,-2.5781 -1.71875,-2.5912 -1.71875,-7.50001 0,-4.92187 1.71875,-7.5 1.73177,-2.59114 5,-2.59114 z"
         style="font-size:26.66666794px"
         id="path1106" />
      <path
         d="m 323.94141,989.02018 q -2.03125,0 -3.0599,2.00521 -1.01562,1.99219 -1.01562,6.0026 0,3.99741 1.01562,6.00261 1.02865,1.9922 3.0599,1.9922 2.04427,0 3.05989,-1.9922 1.02865,-2.0052 1.02865,-6.00261 0,-4.01041 -1.02865,-6.0026 -1.01562,-2.00521 -3.05989,-2.00521 z m 0,-2.08333 q 3.26823,0 4.98698,2.59114 1.73177,2.57813 1.73177,7.5 0,4.90881 -1.73177,7.50001 -1.71875,2.5781 -4.98698,2.5781 -3.26823,0 -5,-2.5781 -1.71875,-2.5912 -1.71875,-7.50001 0,-4.92187 1.71875,-7.5 1.73177,-2.59114 5,-2.59114 z"
         style="font-size:26.66666794px"
         id="path1108" />
    </g>
    <path
       transform="matrix(0.49999999,0,0,1,35.000001,-239.99999)"
       style="fill:none;stroke:#000000;stroke-width:1;stroke-linecap:butt;stroke-linejoin:miter;stroke-miterlimit:4;stroke-dasharray:none;stroke-opacity:1"
       d="m 69.999999,276.99999 c 13.333334,0 26.666667,0 40.000001,0"
       id="path989" />
    <g
       aria-label="1700"
       transform="matrix(0.26458333,0,0,0.26458333,1.0690799,-231.1801)"
       style="font-style:normal;font-weight:normal;font-size:40px;line-height:1.25;font-family:sans-serif;letter-spacing:0px;word-spacing:0px;fill:#000000;fill-opacity:1;stroke:none"
       id="flowRoot999">
      <path
         d="m 267.8737,1004.515 h 4.29687 v -14.83076 l -4.67448,0.9375 v -2.39583 l 4.64844,-0.9375 h 2.63021 v 17.22659 h 4.29688 v 2.2135 H 267.8737 Z"
         style="font-size:26.66666794px"
         id="path1111" />
      <path
         d="m 283.72005,987.28841 h 12.5 v 1.11979 l -7.05729,18.3203 h -2.74739 l 6.64062,-17.22655 h -9.33594 z"
         style="font-size:26.66666794px"
         id="path1113" />
      <path
         d="m 306.97526,989.02018 q -2.03125,0 -3.05989,2.00521 -1.01563,1.99219 -1.01563,6.0026 0,3.99741 1.01563,6.00261 1.02864,1.9922 3.05989,1.9922 2.04427,0 3.0599,-1.9922 1.02864,-2.0052 1.02864,-6.00261 0,-4.01041 -1.02864,-6.0026 -1.01563,-2.00521 -3.0599,-2.00521 z m 0,-2.08333 q 3.26823,0 4.98698,2.59114 1.73177,2.57813 1.73177,7.5 0,4.90881 -1.73177,7.50001 -1.71875,2.5781 -4.98698,2.5781 -3.26823,0 -5,-2.5781 -1.71875,-2.5912 -1.71875,-7.50001 0,-4.92187 1.71875,-7.5 1.73177,-2.59114 5,-2.59114 z"
         style="font-size:26.66666794px"
         id="path1115" />
      <path
         d="m 323.94141,989.02018 q -2.03125,0 -3.0599,2.00521 -1.01562,1.99219 -1.01562,6.0026 0,3.99741 1.01562,6.00261 1.02865,1.9922 3.0599,1.9922 2.04427,0 3.05989,-1.9922 1.02865,-2.0052 1.02865,-6.00261 0,-4.01041 -1.02865,-6.0026 -1.01562,-2.00521 -3.05989,-2.00521 z m 0,-2.08333 q 3.26823,0 4.98698,2.59114 1.73177,2.57813 1.73177,7.5 0,4.90881 -1.73177,7.50001 -1.71875,2.5781 -4.98698,2.5781 -3.26823,0 -5,-2.5781 -1.71875,-2.5912 -1.71875,-7.50001 0,-4.92187 1.71875,-7.5 1.73177,-2.59114 5,-2.59114 z"
         style="font-size:26.66666794px"
         id="path1117" />
    </g>
    <path
       transform="matrix(0.49999999,0,0,1,35.000001,-259.99999)"
       style="fill:none;stroke:#000000;stroke-width:1;stroke-linecap:butt;stroke-linejoin:miter;stroke-miterlimit:4;stroke-dasharray:none;stroke-opacity:1"
       d="m 69.999999,276.99999 c 13.333334,0 26.666667,0 40.000001,0"
       id="path1001" />
    <g
       aria-label="1800"
       transform="matrix(0.26458333,0,0,0.26458333,1.0690799,-251.1801)"
       style="font-style:normal;font-weight:normal;font-size:40px;line-height:1.25;font-family:sans-serif;letter-spacing:0px;word-spacing:0px;fill:#000000;fill-opacity:1;stroke:none"
       id="flowRoot1011">
      <path
         d="m 267.8737,1004.515 h 4.29687 v -14.83076 l -4.67448,0.9375 v -2.39583 l 4.64844,-0.9375 h 2.63021 v 17.22659 h 4.29688 v 2.2135 H 267.8737 Z"
         style="font-size:26.66666794px"
         id="path1120" />
      <path
         d="m 290.00912,997.49674 q -1.875,0 -2.95573,1.00261 -1.06771,1.0026 -1.06771,2.76045 0,1.7578 1.06771,2.7604 1.08073,1.0026 2.95573,1.0026 1.875,0 2.95572,-1.0026 1.08073,-1.0156 1.08073,-2.7604 0,-1.75785 -1.08073,-2.76045 -1.0677,-1.00261 -2.95572,-1.00261 z m -2.63021,-1.11979 q -1.69271,-0.41666 -2.64323,-1.57552 -0.9375,-1.15885 -0.9375,-2.82552 0,-2.33073 1.65364,-3.6849 1.66667,-1.35416 4.5573,-1.35416 2.90364,0 4.55729,1.35416 1.65364,1.35417 1.65364,3.6849 0,1.66667 -0.95052,2.82552 -0.9375,1.15886 -2.61719,1.57552 1.90105,0.44271 2.95573,1.73177 1.06771,1.28907 1.06771,3.15108 0,2.8255 -1.73177,4.3359 -1.71875,1.5104 -4.93489,1.5104 -3.21615,0 -4.94792,-1.5104 -1.71875,-1.5104 -1.71875,-4.3359 0,-1.86201 1.06771,-3.15108 1.06771,-1.28906 2.96875,-1.73177 z m -0.96354,-4.15364 q 0,1.51041 0.9375,2.35677 0.95052,0.84635 2.65625,0.84635 1.6927,0 2.64322,-0.84635 0.96355,-0.84636 0.96355,-2.35677 0,-1.51042 -0.96355,-2.35677 -0.95052,-0.84636 -2.64322,-0.84636 -1.70573,0 -2.65625,0.84636 -0.9375,0.84635 -0.9375,2.35677 z"
         style="font-size:26.66666794px"
         id="path1122" />
      <path
         d="m 306.97526,989.02018 q -2.03125,0 -3.05989,2.00521 -1.01563,1.99219 -1.01563,6.0026 0,3.99741 1.01563,6.00261 1.02864,1.9922 3.05989,1.9922 2.04427,0 3.0599,-1.9922 1.02864,-2.0052 1.02864,-6.00261 0,-4.01041 -1.02864,-6.0026 -1.01563,-2.00521 -3.0599,-2.00521 z m 0,-2.08333 q 3.26823,0 4.98698,2.59114 1.73177,2.57813 1.73177,7.5 0,4.90881 -1.73177,7.50001 -1.71875,2.5781 -4.98698,2.5781 -3.26823,0 -5,-2.5781 -1.71875,-2.5912 -1.71875,-7.50001 0,-4.92187 1.71875,-7.5 1.73177,-2.59114 5,-2.59114 z"
         style="font-size:26.66666794px"
         id="path1124" />
      <path
         d="m 323.94141,989.02018 q -2.03125,0 -3.0599,2.00521 -1.01562,1.99219 -1.01562,6.0026 0,3.99741 1.01562,6.00261 1.02865,1.9922 3.0599,1.9922 2.04427,0 3.05989,-1.9922 1.02865,-2.0052 1.02865,-6.00261 0,-4.01041 -1.02865,-6.0026 -1.01562,-2.00521 -3.05989,-2.00521 z m 0,-2.08333 q 3.26823,0 4.98698,2.59114 1.73177,2.57813 1.73177,7.5 0,4.90881 -1.73177,7.50001 -1.71875,2.5781 -4.98698,2.5781 -3.26823,0 -5,-2.5781 -1.71875,-2.5912 -1.71875,-7.50001 0,-4.92187 1.71875,-7.5 1.73177,-2.59114 5,-2.59114 z"
         style="font-size:26.66666794px"
         id="path1126" />
    </g>
    <path
       transform="matrix(0.49999999,0,0,1,35.000001,-279.99999)"
       style="fill:none;stroke:#000000;stroke-width:1;stroke-linecap:butt;stroke-linejoin:miter;stroke-miterlimit:4;stroke-dasharray:none;stroke-opacity:1"
       d="m 69.999999,276.99999 c 13.333334,0 26.666667,0 40.000001,0"
       id="path1013" />
    <g
       aria-label="1900"
       transform="matrix(0.26458333,0,0,0.26458333,1.0690799,-271.1801)"
       style="font-style:normal;font-weight:normal;font-size:40px;line-height:1.25;font-family:sans-serif;letter-spacing:0px;word-spacing:0px;fill:#000000;fill-opacity:1;stroke:none"
       id="flowRoot1023">
      <path
         d="m 267.8737,1004.515 h 4.29687 v -14.83076 l -4.67448,0.9375 v -2.39583 l 4.64844,-0.9375 h 2.63021 v 17.22659 h 4.29688 v 2.2135 H 267.8737 Z"
         style="font-size:26.66666794px"
         id="path1129" />
      <path
         d="m 284.46224,1006.3249 v -2.3959 q 0.98958,0.4688 2.00521,0.7162 1.01562,0.2474 1.99219,0.2474 2.60416,0 3.97135,-1.7448 1.38021,-1.7578 1.57552,-5.32553 -0.75521,1.11979 -1.91406,1.71875 -1.15886,0.59898 -2.56511,0.59898 -2.91666,0 -4.62239,-1.75784 -1.69271,-1.77083 -1.69271,-4.83073 0,-2.99479 1.77083,-4.80469 1.77084,-1.80989 4.71355,-1.80989 3.37239,0 5.14323,2.59114 1.78385,2.57813 1.78385,7.5 0,4.59631 -2.1875,7.34371 -2.17448,2.7344 -5.85938,2.7344 -0.98958,0 -2.0052,-0.1953 -1.01563,-0.1953 -2.10938,-0.5859 z m 5.23438,-8.24222 q 1.77083,0 2.79947,-1.21094 1.04167,-1.21093 1.04167,-3.32031 0,-2.09635 -1.04167,-3.30729 -1.02864,-1.22396 -2.79947,-1.22396 -1.77084,0 -2.8125,1.22396 -1.02865,1.21094 -1.02865,3.30729 0,2.10938 1.02865,3.32031 1.04166,1.21094 2.8125,1.21094 z"
         style="font-size:26.66666794px"
         id="path1131" />
      <path
         d="m 306.97526,989.02018 q -2.03125,0 -3.05989,2.00521 -1.01563,1.99219 -1.01563,6.0026 0,3.99741 1.01563,6.00261 1.02864,1.9922 3.05989,1.9922 2.04427,0 3.0599,-1.9922 1.02864,-2.0052 1.02864,-6.00261 0,-4.01041 -1.02864,-6.0026 -1.01563,-2.00521 -3.0599,-2.00521 z m 0,-2.08333 q 3.26823,0 4.98698,2.59114 1.73177,2.57813 1.73177,7.5 0,4.90881 -1.73177,7.50001 -1.71875,2.5781 -4.98698,2.5781 -3.26823,0 -5,-2.5781 -1.71875,-2.5912 -1.71875,-7.50001 0,-4.92187 1.71875,-7.5 1.73177,-2.59114 5,-2.59114 z"
         style="font-size:26.66666794px"
         id="path1133" />
      <path
         d="m 323.94141,989.02018 q -2.03125,0 -3.0599,2.00521 -1.01562,1.99219 -1.01562,6.0026 0,3.99741 1.01562,6.00261 1.02865,1.9922 3.0599,1.9922 2.04427,0 3.05989,-1.9922 1.02865,-2.0052 1.02865,-6.00261 0,-4.01041 -1.02865,-6.0026 -1.01562,-2.00521 -3.05989,-2.00521 z m 0,-2.08333 q 3.26823,0 4.98698,2.59114 1.73177,2.57813 1.73177,7.5 0,4.90881 -1.73177,7.50001 -1.71875,2.5781 -4.98698,2.5781 -3.26823,0 -5,-2.5781 -1.71875,-2.5912 -1.71875,-7.50001 0,-4.92187 1.71875,-7.5 1.73177,-2.59114 5,-2.59114 z"
         style="font-size:26.66666794px"
         id="path1135" />
    </g>
    <path
       transform="matrix(0.49999999,0,0,1,35.000001,-299.99999)"
       style="fill:none;stroke:#000000;stroke-width:1;stroke-linecap:butt;stroke-linejoin:miter;stroke-miterlimit:4;stroke-dasharray:none;stroke-opacity:1"
       d="m 69.999999,276.99999 c 13.333334,0 26.666667,0 40.000001,0"
       id="path1025" />
    <g
       aria-label="2000"
       transform="matrix(0.26458333,0,0,0.26458333,1.06908,-291.1801)"
       style="font-style:normal;font-weight:normal;font-size:40px;line-height:1.25;font-family:sans-serif;letter-spacing:0px;word-spacing:0px;fill:#000000;fill-opacity:1;stroke:none"
       id="flowRoot1035">
      <path
         d="m 269.68359,1004.515 h 9.17969 v 2.2135 h -12.34375 v -2.2135 q 1.4974,-1.5495 4.07552,-4.1537 2.59115,-2.61716 3.25521,-3.37237 1.26302,-1.41927 1.75781,-2.39583 0.50782,-0.98959 0.50782,-1.94011 0,-1.54948 -1.09375,-2.52604 -1.08073,-0.97656 -2.82553,-0.97656 -1.23697,0 -2.61718,0.42969 -1.36719,0.42968 -2.92969,1.30208 v -2.65625 q 1.58854,-0.63802 2.96875,-0.96354 1.38021,-0.32552 2.52604,-0.32552 3.02084,0 4.81771,1.51041 1.79688,1.51042 1.79688,4.03646 0,1.19792 -0.45573,2.27865 -0.44271,1.06771 -1.62761,2.52604 -0.32552,0.37761 -2.07031,2.1875 -1.74479,1.79689 -4.92188,5.03909 z"
         style="font-size:26.66666794px"
         id="path1138" />
      <path
         d="m 290.00912,989.02018 q -2.03125,0 -3.0599,2.00521 -1.01563,1.99219 -1.01563,6.0026 0,3.99741 1.01563,6.00261 1.02865,1.9922 3.0599,1.9922 2.04427,0 3.05989,-1.9922 1.02865,-2.0052 1.02865,-6.00261 0,-4.01041 -1.02865,-6.0026 -1.01562,-2.00521 -3.05989,-2.00521 z m 0,-2.08333 q 3.26822,0 4.98698,2.59114 1.73177,2.57813 1.73177,7.5 0,4.90881 -1.73177,7.50001 -1.71876,2.5781 -4.98698,2.5781 -3.26823,0 -5,-2.5781 -1.71875,-2.5912 -1.71875,-7.50001 0,-4.92187 1.71875,-7.5 1.73177,-2.59114 5,-2.59114 z"
         style="font-size:26.66666794px"
         id="path1140" />
      <path
         d="m 306.97526,989.02018 q -2.03125,0 -3.05989,2.00521 -1.01563,1.99219 -1.01563,6.0026 0,3.99741 1.01563,6.00261 1.02864,1.9922 3.05989,1.9922 2.04427,0 3.0599,-1.9922 1.02864,-2.0052 1.02864,-6.00261 0,-4.01041 -1.02864,-6.0026 -1.01563,-2.00521 -3.0599,-2.00521 z m 0,-2.08333 q 3.26823,0 4.98698,2.59114 1.73177,2.57813 1.73177,7.5 0,4.90881 -1.73177,7.50001 -1.71875,2.5781 -4.98698,2.5781 -3.26823,0 -5,-2.5781 -1.71875,-2.5912 -1.71875,-7.50001 0,-4.92187 1.71875,-7.5 1.73177,-2.59114 5,-2.59114 z"
         style="font-size:26.66666794px"
         id="path1142" />
      <path
         d="m 323.94141,989.02018 q -2.03125,0 -3.0599,2.00521 -1.01562,1.99219 -1.01562,6.0026 0,3.99741 1.01562,6.00261 1.02865,1.9922 3.0599,1.9922 2.04427,0 3.05989,-1.9922 1.02865,-2.0052 1.02865,-6.00261 0,-4.01041 -1.02865,-6.0026 -1.01562,-2.00521 -3.05989,-2.00521 z m 0,-2.08333 q 3.26823,0 4.98698,2.59114 1.73177,2.57813 1.73177,7.5 0,4.90881 -1.73177,7.50001 -1.71875,2.5781 -4.98698,2.5781 -3.26823,0 -5,-2.5781 -1.71875,-2.5912 -1.71875,-7.50001 0,-4.92187 1.71875,-7.5 1.73177,-2.59114 5,-2.59114 z"
         style="font-size:26.66666794px"
         id="path1144" />
    </g>
    <path
       transform="matrix(0.49999999,0,0,1,35.000001,-319.99999)"
       style="fill:none;stroke:#000000;stroke-width:1;stroke-linecap:butt;stroke-linejoin:miter;stroke-miterlimit:4;stroke-dasharray:none;stroke-opacity:1"
       d="m 69.999999,276.99999 c 13.333334,0 26.666667,0 40.000001,0"
       id="path1037" />
    <g
       aria-label="2100"
       transform="matrix(0.26458333,0,0,0.26458333,1.0690801,-311.1801)"
       style="font-style:normal;font-weight:normal;font-size:40px;line-height:1.25;font-family:sans-serif;letter-spacing:0px;word-spacing:0px;fill:#000000;fill-opacity:1;stroke:none"
       id="flowRoot1047">
      <path
         d="m 269.68359,1004.515 h 9.17969 v 2.2135 h -12.34375 v -2.2135 q 1.4974,-1.5495 4.07552,-4.1537 2.59115,-2.61716 3.25521,-3.37237 1.26302,-1.41927 1.75781,-2.39583 0.50782,-0.98959 0.50782,-1.94011 0,-1.54948 -1.09375,-2.52604 -1.08073,-0.97656 -2.82553,-0.97656 -1.23697,0 -2.61718,0.42969 -1.36719,0.42968 -2.92969,1.30208 v -2.65625 q 1.58854,-0.63802 2.96875,-0.96354 1.38021,-0.32552 2.52604,-0.32552 3.02084,0 4.81771,1.51041 1.79688,1.51042 1.79688,4.03646 0,1.19792 -0.45573,2.27865 -0.44271,1.06771 -1.62761,2.52604 -0.32552,0.37761 -2.07031,2.1875 -1.74479,1.79689 -4.92188,5.03909 z"
         style="font-size:26.66666794px"
         id="path1147" />
      <path
         d="m 284.83984,1004.515 h 4.29688 v -14.83076 l -4.67448,0.9375 v -2.39583 l 4.64844,-0.9375 h 2.63021 v 17.22659 h 4.29687 v 2.2135 h -11.19792 z"
         style="font-size:26.66666794px"
         id="path1149" />
      <path
         d="m 306.97526,989.02018 q -2.03125,0 -3.05989,2.00521 -1.01563,1.99219 -1.01563,6.0026 0,3.99741 1.01563,6.00261 1.02864,1.9922 3.05989,1.9922 2.04427,0 3.0599,-1.9922 1.02864,-2.0052 1.02864,-6.00261 0,-4.01041 -1.02864,-6.0026 -1.01563,-2.00521 -3.0599,-2.00521 z m 0,-2.08333 q 3.26823,0 4.98698,2.59114 1.73177,2.57813 1.73177,7.5 0,4.90881 -1.73177,7.50001 -1.71875,2.5781 -4.98698,2.5781 -3.26823,0 -5,-2.5781 -1.71875,-2.5912 -1.71875,-7.50001 0,-4.92187 1.71875,-7.5 1.73177,-2.59114 5,-2.59114 z"
         style="font-size:26.66666794px"
         id="path1151" />
      <path
         d="m 323.94141,989.02018 q -2.03125,0 -3.0599,2.00521 -1.01562,1.99219 -1.01562,6.0026 0,3.99741 1.01562,6.00261 1.02865,1.9922 3.0599,1.9922 2.04427,0 3.05989,-1.9922 1.02865,-2.0052 1.02865,-6.00261 0,-4.01041 -1.02865,-6.0026 -1.01562,-2.00521 -3.05989,-2.00521 z m 0,-2.08333 q 3.26823,0 4.98698,2.59114 1.73177,2.57813 1.73177,7.5 0,4.90881 -1.73177,7.50001 -1.71875,2.5781 -4.98698,2.5781 -3.26823,0 -5,-2.5781 -1.71875,-2.5912 -1.71875,-7.50001 0,-4.92187 1.71875,-7.5 1.73177,-2.59114 5,-2.59114 z"
         style="font-size:26.66666794px"
         id="path1154" />
    </g>
    <path
       transform="matrix(0.49999999,0,0,1,35.000001,-339.99999)"
       style="fill:none;stroke:#000000;stroke-width:1;stroke-linecap:butt;stroke-linejoin:miter;stroke-miterlimit:4;stroke-dasharray:none;stroke-opacity:1"
       d="m 69.999999,276.99999 c 13.333334,0 26.666667,0 40.000001,0"
       id="path1049" />
    <g
       aria-label="2200"
       transform="matrix(0.26458333,0,0,0.26458333,1.0690801,-331.1801)"
       style="font-style:normal;font-weight:normal;font-size:40px;line-height:1.25;font-family:sans-serif;letter-spacing:0px;word-spacing:0px;fill:#000000;fill-opacity:1;stroke:none"
       id="flowRoot1059">
      <path
         d="m 269.68359,1004.515 h 9.17969 v 2.2135 h -12.34375 v -2.2135 q 1.4974,-1.5495 4.07552,-4.1537 2.59115,-2.61716 3.25521,-3.37237 1.26302,-1.41927 1.75781,-2.39583 0.50782,-0.98959 0.50782,-1.94011 0,-1.54948 -1.09375,-2.52604 -1.08073,-0.97656 -2.82553,-0.97656 -1.23697,0 -2.61718,0.42969 -1.36719,0.42968 -2.92969,1.30208 v -2.65625 q 1.58854,-0.63802 2.96875,-0.96354 1.38021,-0.32552 2.52604,-0.32552 3.02084,0 4.81771,1.51041 1.79688,1.51042 1.79688,4.03646 0,1.19792 -0.45573,2.27865 -0.44271,1.06771 -1.62761,2.52604 -0.32552,0.37761 -2.07031,2.1875 -1.74479,1.79689 -4.92188,5.03909 z"
         style="font-size:26.66666794px"
         id="path1157" />
      <path
         d="m 286.64974,1004.515 h 9.17969 v 2.2135 h -12.34375 v -2.2135 q 1.49739,-1.5495 4.07552,-4.1537 2.59114,-2.61716 3.25521,-3.37237 1.26302,-1.41927 1.75781,-2.39583 0.50781,-0.98959 0.50781,-1.94011 0,-1.54948 -1.09375,-2.52604 -1.08073,-0.97656 -2.82552,-0.97656 -1.23698,0 -2.61719,0.42969 -1.36718,0.42968 -2.92968,1.30208 v -2.65625 q 1.58854,-0.63802 2.96875,-0.96354 1.3802,-0.32552 2.52604,-0.32552 3.02083,0 4.81771,1.51041 1.79687,1.51042 1.79687,4.03646 0,1.19792 -0.45573,2.27865 -0.44271,1.06771 -1.6276,2.52604 -0.32552,0.37761 -2.07031,2.1875 -1.7448,1.79689 -4.92188,5.03909 z"
         style="font-size:26.66666794px"
         id="path1159" />
      <path
         d="m 306.97526,989.02018 q -2.03125,0 -3.05989,2.00521 -1.01563,1.99219 -1.01563,6.0026 0,3.99741 1.01563,6.00261 1.02864,1.9922 3.05989,1.9922 2.04427,0 3.0599,-1.9922 1.02864,-2.0052 1.02864,-6.00261 0,-4.01041 -1.02864,-6.0026 -1.01563,-2.00521 -3.0599,-2.00521 z m 0,-2.08333 q 3.26823,0 4.98698,2.59114 1.73177,2.57813 1.73177,7.5 0,4.90881 -1.73177,7.50001 -1.71875,2.5781 -4.98698,2.5781 -3.26823,0 -5,-2.5781 -1.71875,-2.5912 -1.71875,-7.50001 0,-4.92187 1.71875,-7.5 1.73177,-2.59114 5,-2.59114 z"
         style="font-size:26.66666794px"
         id="path1161" />
      <path
         d="m 323.94141,989.02018 q -2.03125,0 -3.0599,2.00521 -1.01562,1.99219 -1.01562,6.0026 0,3.99741 1.01562,6.00261 1.02865,1.9922 3.0599,1.9922 2.04427,0 3.05989,-1.9922 1.02865,-2.0052 1.02865,-6.00261 0,-4.01041 -1.02865,-6.0026 -1.01562,-2.00521 -3.05989,-2.00521 z m 0,-2.08333 q 3.26823,0 4.98698,2.59114 1.73177,2.57813 1.73177,7.5 0,4.90881 -1.73177,7.50001 -1.71875,2.5781 -4.98698,2.5781 -3.26823,0 -5,-2.5781 -1.71875,-2.5912 -1.71875,-7.50001 0,-4.92187 1.71875,-7.5 1.73177,-2.59114 5,-2.59114 z"
         style="font-size:26.66666794px"
         id="path1163" />
    </g>
    <g
       id="g1105"
       transform="matrix(0.90620811,0,0,0.85765459,242.22257,304.32459)">
      <g
         aria-label="CO  in ppm"
         transform="scale(0.26458333)"
         style="font-style:normal;font-weight:normal;font-size:40px;line-height:1.25;font-family:sans-serif;letter-spacing:0px;word-spacing:0px;fill:#000000;fill-opacity:1;stroke:none"
         id="flowRoot1081">
        <path
           d="m -692.34766,-2.8613281 v 4.1601562 q -1.99218,-1.85546872 -4.25781,-2.7734375 -2.24609,-0.9179687 -4.78515,-0.9179687 -5,0 -7.65625,3.06640622 -2.65625,3.04687498 -2.65625,8.82812498 0,5.7617189 2.65625,8.8281249 2.65625,3.046875 7.65625,3.046875 2.53906,0 4.78515,-0.917969 2.26563,-0.917968 4.25781,-2.773437 v 4.121094 q -2.07031,1.40625 -4.39453,2.109375 -2.30468,0.703125 -4.88281,0.703125 -6.62109,0 -10.42969,-4.042969 -3.80859,-4.0625 -3.80859,-11.0742189 0,-7.03125 3.80859,-11.0742187 3.8086,-4.0625 10.42969,-4.0625 2.61719,0 4.92188,0.703125 2.32421,0.6835937 4.35546,2.0703125 z"
           style=""
           id="path990" />
        <path
           d="m -674.41797,-2.4316406 q -4.29687,0 -6.83594,3.20312497 -2.51953,3.20312503 -2.51953,8.73046873 0,5.5078129 2.51953,8.7109379 2.53907,3.203125 6.83594,3.203125 4.29688,0 6.79688,-3.203125 2.51953,-3.203125 2.51953,-8.7109379 0,-5.5273437 -2.51953,-8.73046873 -2.5,-3.20312497 -6.79688,-3.20312497 z m 0,-3.203125 q 6.13281,0 9.80469,4.1210937 3.67187,4.1015625 3.67187,11.015625 0,6.8945309 -3.67187,11.0156249 -3.67188,4.101563 -9.80469,4.101563 -6.15234,0 -9.84375,-4.101563 -3.67187,-4.101562 -3.67187,-11.0156249 0,-6.9140625 3.67187,-11.015625 3.69141,-4.1210937 9.84375,-4.1210937 z"
           style=""
           id="path992" />
        <path
           d="m -629.49609,2.1777344 h 3.59375 V 24.052734 h -3.59375 z m 0,-8.515625 h 3.59375 v 4.5507812 h -3.59375 z"
           style=""
           id="path994" />
        <path
           d="m -600.19922,10.849609 v 13.203125 h -3.59375 V 10.966797 q 0,-3.1054689 -1.21094,-4.6484376 -1.21093,-1.5429688 -3.63281,-1.5429688 -2.91015,0 -4.58984,1.8554688 -1.67969,1.8554687 -1.67969,5.0585936 v 12.363281 h -3.61328 V 2.1777344 h 3.61328 v 3.3984375 q 1.28906,-1.9726563 3.02734,-2.9492188 1.75782,-0.9765625 4.04297,-0.9765625 3.76953,0 5.70313,2.34375 1.93359,2.3242188 1.93359,6.8554684 z"
           style=""
           id="path996" />
        <path
           d="m -576.83984,20.771484 v 11.601563 h -3.61328 V 2.1777344 h 3.61328 v 3.3203125 q 1.13281,-1.953125 2.85156,-2.890625 1.73828,-0.9570313 4.14062,-0.9570313 3.98438,0 6.46485,3.1640625 2.5,3.1640625 2.5,8.3203129 0,5.15625 -2.5,8.320312 -2.48047,3.164063 -6.46485,3.164063 -2.40234,0 -4.14062,-0.9375 -1.71875,-0.957032 -2.85156,-2.910157 z m 12.22656,-7.636718 q 0,-3.9648441 -1.64063,-6.2109379 -1.62109,-2.265625 -4.47265,-2.265625 -2.85156,0 -4.49219,2.265625 -1.62109,2.2460938 -1.62109,6.2109379 0,3.964843 1.62109,6.230468 1.64063,2.246094 4.49219,2.246094 2.85156,0 4.47265,-2.246094 1.64063,-2.265625 1.64063,-6.230468 z"
           style=""
           id="path998" />
        <path
           d="m -551.44922,20.771484 v 11.601563 h -3.61328 V 2.1777344 h 3.61328 v 3.3203125 q 1.13281,-1.953125 2.85156,-2.890625 1.73829,-0.9570313 4.14063,-0.9570313 3.98437,0 6.46484,3.1640625 2.5,3.1640625 2.5,8.3203129 0,5.15625 -2.5,8.320312 -2.48047,3.164063 -6.46484,3.164063 -2.40234,0 -4.14063,-0.9375 -1.71875,-0.957032 -2.85156,-2.910157 z m 12.22656,-7.636718 q 0,-3.9648441 -1.64062,-6.2109379 -1.62109,-2.265625 -4.47266,-2.265625 -2.85156,0 -4.49218,2.265625 -1.6211,2.2460938 -1.6211,6.2109379 0,3.964843 1.6211,6.230468 1.64062,2.246094 4.49218,2.246094 2.85157,0 4.47266,-2.246094 1.64062,-2.265625 1.64062,-6.230468 z"
           style=""
           id="path1000" />
        <path
           d="m -512.50391,6.3769531 q 1.34766,-2.421875 3.22266,-3.5742187 1.875,-1.1523438 4.41406,-1.1523438 3.41797,0 5.27344,2.4023438 1.85547,2.3828125 1.85547,6.7968746 v 13.203125 h -3.61328 V 10.966797 q 0,-3.1445314 -1.11328,-4.6679689 -1.11328,-1.5234375 -3.39844,-1.5234375 -2.79297,0 -4.41406,1.8554688 -1.6211,1.8554687 -1.6211,5.0585936 v 12.363281 h -3.61328 V 10.966797 q 0,-3.1640626 -1.11328,-4.6679689 -1.11328,-1.5234375 -3.4375,-1.5234375 -2.75391,0 -4.375,1.875 -1.62109,1.8554688 -1.62109,5.0390624 v 12.363281 h -3.61328 V 2.1777344 h 3.61328 v 3.3984375 q 1.23047,-2.0117188 2.94922,-2.96875 1.71875,-0.9570313 4.08203,-0.9570313 2.38281,0 4.04297,1.2109375 1.67968,1.2109375 2.48046,3.515625 z"
           style=""
           id="path1002" />
      </g>
      <g
         aria-label="2"
         transform="matrix(0.22375552,0,0,0.17546052,-23.498397,-8.5064785)"
         style="font-style:normal;font-weight:normal;font-size:40px;line-height:1.25;font-family:sans-serif;letter-spacing:0px;word-spacing:0px;fill:#000000;fill-opacity:1;stroke:none"
         id="flowRoot1089">
        <path
           d="m -672.63867,96.322266 h 13.76953 v 3.320312 h -18.51563 v -3.320312 q 2.2461,-2.324219 6.11329,-6.230469 3.88671,-3.925781 4.88281,-5.058594 1.89453,-2.128906 2.63672,-3.59375 0.76172,-1.484375 0.76172,-2.910156 0,-2.324219 -1.64063,-3.789063 -1.62109,-1.464843 -4.23828,-1.464843 -1.85547,0 -3.92578,0.644531 -2.05078,0.644531 -4.39453,1.953125 v -3.984375 q 2.38281,-0.957031 4.45312,-1.445313 2.07031,-0.488281 3.78906,-0.488281 4.53125,0 7.22657,2.265625 2.69531,2.265625 2.69531,6.054688 0,1.796875 -0.68359,3.417968 -0.66407,1.601563 -2.44141,3.789063 -0.48828,0.566406 -3.10547,3.28125 -2.61719,2.695312 -7.38281,7.558594 z"
           style=""
           id="path1167" />
      </g>
    </g>
    <path
       style="font-style:normal;font-weight:normal;font-size:40px;line-height:1.25;font-family:sans-serif;letter-spacing:0px;word-spacing:0px;fill:none;fill-opacity:1;stroke:#000000;stroke-width:0.81429023;stroke-miterlimit:4;stroke-dasharray:none;stroke-opacity:1"
       d="m 107.98566,-63.573465 c 0,0 2.8953,1.109133 3.42961,3.327399 0.53433,2.218216 0.8015,6.8816 0.8015,13.990092 v 18.754324 c 0,7.915125 0.2858,13.662393 0.85739,17.241854 0.55918,3.5794502 1.52221,5.9993594 2.88908,7.2597373 -1.3793,1.3612245 -2.34854,3.83154198 -2.90772,7.4109623 -0.55917,3.5794505 -0.83875,9.3015494 -0.83875,17.1662764 v 18.754314 c 0,7.108452 -0.26717,11.771846 -0.8015,13.990102 -0.53431,2.218236 -3.42961,3.327369 -3.42961,3.327369"
       id="path1127"
       inkscape:connector-curvature="0"
       sodipodi:nodetypes="ccsscccsssc" />
    <g
       aria-label="GUT "
       transform="rotate(-90)"
       style="font-style:normal;font-weight:normal;font-size:10.58333302px;line-height:1.25;font-family:sans-serif;letter-spacing:0px;word-spacing:0px;fill:#000000;fill-opacity:1;stroke:none;stroke-width:0.26458332"
       id="text1139">
      <path
         d="m -241.5241,124.14621 v -2.07223 h -1.70532 v -0.85782 h 2.73885 v 3.31246 q -0.60461,0.42891 -1.33325,0.65112 -0.72864,0.21704 -1.55546,0.21704 -1.80868,0 -2.83187,-1.0542 -1.01803,-1.05937 -1.01803,-2.94556 0,-1.89135 1.01803,-2.94555 1.02319,-1.05937 2.83187,-1.05937 0.75447,0 1.43143,0.18604 0.68213,0.18603 1.25574,0.54777 v 1.11104 q -0.57877,-0.49093 -1.2299,-0.73897 -0.65112,-0.24805 -1.36942,-0.24805 -1.41594,0 -2.12907,0.79065 -0.70797,0.79065 -0.70797,2.35644 0,1.56063 0.70797,2.35128 0.71313,0.79065 2.12907,0.79065 0.55293,0 0.98702,-0.093 0.43408,-0.0982 0.78031,-0.29972 z"
         style="stroke-width:0.26458332"
         id="path983" />
      <path
         d="m -238.70257,117.53163 h 1.04904 v 4.68705 q 0,1.24023 0.44958,1.788 0.44959,0.54261 1.45728,0.54261 1.00252,0 1.4521,-0.54261 0.44959,-0.54777 0.44959,-1.788 v -4.68705 h 1.04903 v 4.81624 q 0,1.50895 -0.74931,2.27893 -0.74414,0.76998 -2.20141,0.76998 -1.46245,0 -2.21175,-0.76998 -0.74415,-0.76998 -0.74415,-2.27893 z"
         style="stroke-width:0.26458332"
         id="path985" />
      <path
         d="m -231.90711,117.53163 h 6.52673 v 0.8785 h -2.73885 v 6.83679 h -1.04903 v -6.83679 h -2.73885 z"
         style="stroke-width:0.26458332"
         id="path987" />
    </g>
    <g
       aria-label="GEHT SO!"
       transform="rotate(-90)"
       style="font-style:normal;font-weight:normal;font-size:10.58333302px;line-height:1.25;font-family:sans-serif;letter-spacing:0px;word-spacing:0px;fill:#000000;fill-opacity:1;stroke:none;stroke-width:0.26458332"
       id="text1143">
      <path
         d="m -134.5584,125.05873 v -2.07222 h -1.70532 v -0.85783 h 2.73885 v 3.31246 q -0.60462,0.42891 -1.33325,0.65112 -0.72864,0.21704 -1.55546,0.21704 -1.80868,0 -2.83187,-1.0542 -1.01803,-1.05937 -1.01803,-2.94556 0,-1.89135 1.01803,-2.94555 1.02319,-1.05937 2.83187,-1.05937 0.75447,0 1.43143,0.18604 0.68213,0.18603 1.25574,0.54777 v 1.11104 q -0.57878,-0.49093 -1.2299,-0.73897 -0.65112,-0.24805 -1.36942,-0.24805 -1.41594,0 -2.12907,0.79065 -0.70797,0.79065 -0.70797,2.35644 0,1.56063 0.70797,2.35128 0.71313,0.79065 2.12907,0.79065 0.55293,0 0.98702,-0.093 0.43408,-0.0982 0.78031,-0.29972 z"
         style="stroke-width:0.26458332"
         id="path967" />
      <path
         d="m -131.61801,118.44415 h 4.87825 v 0.8785 h -3.83439 v 2.2841 h 3.6742 v 0.87849 h -3.6742 v 2.7957 h 3.92741 v 0.8785 h -4.97127 z"
         style="stroke-width:0.26458332"
         id="path969" />
      <path
         d="m -124.93108,118.44415 h 1.04386 v 3.1626 h 3.79305 v -3.1626 h 1.04387 v 7.71529 h -1.04387 v -3.6742 h -3.79305 v 3.6742 h -1.04386 z"
         style="stroke-width:0.26458332"
         id="path971" />
      <path
         d="m -118.04261,118.44415 h 6.52673 v 0.8785 h -2.73885 v 6.83679 h -1.04903 v -6.83679 h -2.73885 z"
         style="stroke-width:0.26458332"
         id="path973" />
      <path
         d="m -102.51901,118.69736 v 1.01803 q -0.59428,-0.28422 -1.12138,-0.42375 -0.5271,-0.13952 -1.01803,-0.13952 -0.85266,0 -1.31775,0.33072 -0.45992,0.33073 -0.45992,0.94052 0,0.51159 0.30489,0.77514 0.31006,0.25838 1.16789,0.41858 l 0.63045,0.12919 q 1.16789,0.22221 1.72083,0.78548 0.5581,0.55811 0.5581,1.49862 0,1.12138 -0.75447,1.70015 -0.74931,0.57878 -2.20142,0.57878 -0.54777,0 -1.16789,-0.12402 -0.61494,-0.12403 -1.2764,-0.36691 v -1.07487 q 0.63562,0.35657 1.2454,0.53744 0.60978,0.18087 1.19889,0.18087 0.894,0 1.37976,-0.3514 0.48576,-0.3514 0.48576,-1.00253 0,-0.56844 -0.3514,-0.88883 -0.34623,-0.32039 -1.14205,-0.48059 l -0.63562,-0.12402 q -1.16788,-0.23255 -1.68982,-0.72864 -0.52193,-0.4961 -0.52193,-1.37976 0,-1.0232 0.7183,-1.61231 0.72347,-0.58911 1.98955,-0.58911 0.5426,0 1.10587,0.0982 0.56327,0.0982 1.15239,0.29455 z"
         style="stroke-width:0.26458332"
         id="path975" />
      <path
         d="m -97.294525,119.15212 q -1.136882,0 -1.808675,0.84749 -0.666626,0.84749 -0.666626,2.30993 0,1.45728 0.666626,2.30477 0.671793,0.8475 1.808675,0.8475 1.136881,0 1.79834,-0.8475 0.666625,-0.84749 0.666625,-2.30477 0,-1.46244 -0.666625,-2.30993 -0.661459,-0.84749 -1.79834,-0.84749 z m 0,-0.8475 q 1.62264,0 2.594157,1.09037 0.971516,1.08521 0.971516,2.91455 0,1.82418 -0.971516,2.91456 -0.971517,1.0852 -2.594157,1.0852 -1.627808,0 -2.604492,-1.0852 -0.971513,-1.08521 -0.971513,-2.91456 0,-1.82934 0.971513,-2.91455 0.976684,-1.09037 2.604492,-1.09037 z"
         style="stroke-width:0.26458332"
         id="path978" />
      <path
         d="m -91.537773,124.84686 h 1.049031 v 1.31258 h -1.049031 z m 0,-6.40271 h 1.049031 v 3.3848 l -0.103352,1.84485 h -0.837159 l -0.10852,-1.84485 z"
         style="stroke-width:0.26458332"
         id="path980" />
    </g>
    <g
       aria-label="LFTEN!!"
       transform="rotate(-90)"
       style="font-style:normal;font-weight:normal;font-size:10.58333302px;line-height:1.25;font-family:sans-serif;letter-spacing:0px;word-spacing:0px;fill:#000000;fill-opacity:1;stroke:none;stroke-width:0.26458332"
       id="text1147">
      <path
         d="m -16.543098,117.96367 h 1.043863 v 6.83679 h 3.756877 v 0.8785 h -4.80074 z"
         style="stroke-width:0.26458332"
         id="path950" />
      <path
         d="m -11.292773,117.96367 h 1.049031 v 4.68705 q 0,1.24024 0.4495854,1.78801 0.4495849,0.5426 1.4572753,0.5426 1.0025228,0 1.4521077,-0.5426 0.449585,-0.54777 0.449585,-1.78801 v -4.68705 h 1.0490315 v 4.81624 q 0,1.50896 -0.7493082,2.27894 -0.7441406,0.76997 -2.201416,0.76997 -1.462443,0 -2.2117517,-0.76997 -0.74414,-0.76998 -0.74414,-2.27894 z m 3.4416502,-1.9482 h 1.0490315 v 1.04903 h -1.0490315 z m -2.0205485,0 h 1.0490316 v 1.04903 h -1.0490316 z"
         style="stroke-width:0.26458332"
         id="path952" />
      <path
         d="m -3.42762,117.96367 h 4.4338378 v 0.8785 h -3.3899739 v 2.27376 h 3.05924474 v 0.8785 H -2.3837561 v 3.68453 H -3.42762 Z"
         style="stroke-width:0.26458332"
         id="path954" />
      <path
         d="m 1.4041252,117.96367 h 6.5267332 v 0.8785 H 5.1920076 v 6.83679 H 4.142976 v -6.83679 H 1.4041252 Z"
         style="stroke-width:0.26458332"
         id="path956" />
      <path
         d="m 8.938549,117.96367 h 4.878255 v 0.8785 H 9.9824129 v 2.2841 h 3.6741941 v 0.8785 H 9.9824129 v 2.79569 h 3.9274091 v 0.8785 H 8.938549 Z"
         style="stroke-width:0.26458332"
         id="path958" />
      <path
         d="m 15.625481,117.96367 h 1.405599 l 3.420979,6.45439 v -6.45439 h 1.012858 v 7.71529 h -1.405599 l -3.420979,-6.45438 v 6.45438 h -1.012858 z"
         style="stroke-width:0.26458332"
         id="path960" />
      <path
         d="m 24.100414,124.36638 h 1.049032 v 1.31258 h -1.049032 z m 0,-6.40271 h 1.049032 v 3.38481 l -0.103353,1.84485 h -0.837158 l -0.108521,-1.84485 z"
         style="stroke-width:0.26458332"
         id="path962" />
      <path
         d="m 28.343048,124.36638 h 1.049032 v 1.31258 h -1.049032 z m 0,-6.40271 h 1.049032 v 3.38481 l -0.103353,1.84485 h -0.837158 l -0.108521,-1.84485 z"
         style="stroke-width:0.26458332"
         id="path964" />
    </g>
    <path
       style="fill:none;fill-opacity:1;stroke:#000000;stroke-width:0.65065306;stroke-linecap:round;stroke-miterlimit:4;stroke-dasharray:none;stroke-opacity:1"
       d="M 59.977161,-83.035316 H 129.81749 V 317.03527 H 59.977161 Z"
       id="rect1149" />
    <path
       sodipodi:nodetypes="ccsscccsssc"
       inkscape:connector-curvature="0"
       id="path1153"
       d="m 107.98242,57.64579 c 0,0 2.89753,1.09017 3.43225,3.270511 0.53474,2.180292 0.80212,6.763946 0.80212,13.750906 v 18.433684 c 0,7.779809 0.28602,13.428809 0.85805,16.947069 0.55961,3.51825 1.52338,5.89679 2.8913,7.13562 -1.38036,1.33796 -2.35035,3.76603 -2.90996,7.28426 -0.5596,3.51825 -0.83939,9.14252 -0.83939,16.87279 v 18.43367 c 0,6.98693 -0.26738,11.57059 -0.80212,13.75092 -0.53472,2.18031 -3.43225,3.27049 -3.43225,3.27049"
       style="font-style:normal;font-weight:normal;font-size:40px;line-height:1.25;font-family:sans-serif;letter-spacing:0px;word-spacing:0px;fill:none;fill-opacity:1;stroke:#000000;stroke-width:0.80761015;stroke-miterlimit:4;stroke-dasharray:none;stroke-opacity:1" />
    <path
       style="font-style:normal;font-weight:normal;font-size:40px;line-height:1.25;font-family:sans-serif;letter-spacing:0px;word-spacing:0px;fill:none;fill-opacity:1;stroke:#000000;stroke-width:0.80761015;stroke-miterlimit:4;stroke-dasharray:none;stroke-opacity:1"
       d="m 107.98242,176.79571 c 0,0 2.89753,1.09017 3.43225,3.27051 0.53474,2.18029 0.80212,6.76395 0.80212,13.75091 v 18.43368 c 0,7.77981 0.28602,13.42881 0.85805,16.94707 0.55961,3.51825 1.52338,5.89679 2.8913,7.13562 -1.38036,1.33796 -2.35035,3.76603 -2.90996,7.28426 -0.5596,3.51825 -0.83939,9.14252 -0.83939,16.87279 v 18.43367 c 0,6.98693 -0.26738,11.57059 -0.80212,13.75092 -0.53472,2.18031 -3.43225,3.27049 -3.43225,3.27049"
       id="path1155"
       inkscape:connector-curvature="0"
       sodipodi:nodetypes="ccsscccsssc" />
  </g>
</svg>
